<svg width="20" height="20" viewBox="0 0 20 20" fill="none" xmlns="http://www.w3.org/2000/svg">
<path d="M15.0002 13.9584C14.8669 13.9584 14.7419 13.9167 14.6252 13.8334C14.3502 13.625 14.2919 13.2334 14.5002 12.9584C15.5502 11.5584 15.7752 9.70002 15.1002 8.09169C14.9669 7.77502 15.1169 7.40835 15.4336 7.27502C15.7502 7.14169 16.1169 7.29169 16.2502 7.60835C17.1002 9.62502 16.8086 11.9667 15.5002 13.7167C15.3752 13.875 15.1919 13.9584 15.0002 13.9584Z" fill="white"/>
<path d="M16.5256 16.0417C16.3923 16.0417 16.2673 16 16.1506 15.9167C15.8756 15.7084 15.8173 15.3167 16.0256 15.0417C17.809 12.6667 18.2006 9.48338 17.0506 6.74171C16.9173 6.42504 17.0673 6.05838 17.384 5.92504C17.7006 5.79171 18.0673 5.94171 18.2006 6.25838C19.5256 9.40838 19.0756 13.0584 17.0256 15.7917C16.909 15.9584 16.7173 16.0417 16.5256 16.0417Z" fill="white"/>
<path d="M11.6997 10.7999C12.2247 10.2749 13.1247 10.6499 13.1247 11.3916V13.8333C13.1247 15.2666 12.6081 16.3416 11.6831 16.8583C11.3081 17.0666 10.8914 17.1666 10.4581 17.1666C9.79141 17.1666 9.07474 16.9416 8.34141 16.4833L7.80807 16.1499C7.35807 15.8666 7.28307 15.2333 7.65807 14.8583L11.6997 10.7999Z" fill="white"/>
<path d="M18.141 1.85828C17.891 1.60828 17.4827 1.60828 17.2327 1.85828L13.1077 5.98328C13.0577 4.64994 12.5577 3.64994 11.6743 3.15828C10.741 2.64161 9.54935 2.77494 8.33268 3.53328L5.90768 5.04994C5.74102 5.14994 5.54935 5.20828 5.35768 5.20828H4.58268H4.16602C2.14935 5.20828 1.04102 6.31661 1.04102 8.33328V11.6666C1.04102 13.6833 2.14935 14.7916 4.16602 14.7916H4.29935L1.84935 17.2416C1.59935 17.4916 1.59935 17.8999 1.84935 18.1499C1.98268 18.2666 2.14102 18.3333 2.30768 18.3333C2.47435 18.3333 2.63268 18.2666 2.75768 18.1416L18.141 2.75828C18.3994 2.50828 18.3994 2.10828 18.141 1.85828Z" fill="white"/>
</svg>
