<svg width="56" height="56" viewBox="0 0 56 56" fill="none" xmlns="http://www.w3.org/2000/svg">
<g id="Iconsax/Linear/airplane">
<path id="Vector" d="M21.07 50.6099L26.5067 46.0366C27.3234 45.3366 28.6767 45.3366 29.4934 46.0366L34.93 50.6099C36.19 51.2399 37.73 50.6099 38.1967 49.2566L39.2234 46.1533C39.48 45.4066 39.2234 44.3099 38.6634 43.7499L33.3667 38.4299C32.97 38.0566 32.6667 37.3099 32.6667 36.7733V30.1233C32.6667 29.1433 33.39 28.6766 34.3 29.0499L45.7567 33.9966C47.5534 34.7666 49.0234 33.8099 49.0234 31.8499V28.8399C49.0234 27.2766 47.8567 25.4799 46.41 24.8733L33.3667 19.2499C33.1668 19.1473 32.9971 18.9943 32.8743 18.8061C32.7516 18.6179 32.68 18.4009 32.6667 18.1766V11.1766C32.6667 8.98327 31.0567 6.39327 29.0967 5.38994C28.3967 5.03994 27.58 5.03994 26.88 5.38994C24.92 6.39327 23.31 9.00661 23.31 11.1999V18.1999C23.31 18.6199 22.9834 19.1099 22.61 19.2733L9.59002 24.8966C8.14335 25.4799 6.97668 27.2766 6.97668 28.8399V31.8499C6.97668 33.8099 8.44668 34.7666 10.2434 33.9966L21.7 29.0499C22.5867 28.6533 23.3334 29.1433 23.3334 30.1233V36.7733C23.3334 37.3099 23.03 38.0566 22.6567 38.4299L17.36 43.7499C16.8 44.3099 16.5434 45.3833 16.8 46.1533L17.8267 49.2566C18.2467 50.6099 19.7867 51.2633 21.07 50.6099Z" stroke="#4472FF" stroke-width="2.5" stroke-linecap="round" stroke-linejoin="round"/>
</g>
</svg>
