<svg width="50" height="50" viewBox="0 0 50 50" fill="none" xmlns="http://www.w3.org/2000/svg">
<g clip-path="url(#clip0_369_932)">
<path d="M5.95703 26.2119C6.20569 26.9929 6.6401 27.702 7.22299 28.2782C7.80589 28.8545 8.51988 29.2808 9.30371 29.5205C9.83601 29.6841 10.3008 30.0161 10.6282 30.4666C10.9556 30.9171 11.1279 31.4617 11.1191 32.0185C11.1087 32.6957 11.2337 33.368 11.487 33.9961C11.7402 34.6242 12.1165 35.1953 12.5938 35.6758C13.2676 36.3623 14.1216 36.8446 15.0575 37.0672C15.9934 37.2897 16.9731 37.2434 17.8838 36.9336C18.4109 36.756 18.9813 36.7532 19.5101 36.9256C20.039 37.0981 20.4981 37.4365 20.8193 37.8906C21.2899 38.5614 21.916 39.108 22.6442 39.4838C23.3723 39.8595 24.1807 40.053 25 40.0478C25.8183 40.0475 26.6247 39.8515 27.352 39.4763C28.0792 39.101 28.7062 38.5573 29.1807 37.8906C29.5024 37.4366 29.962 37.0985 30.4913 36.9266C31.0205 36.7547 31.5911 36.7582 32.1182 36.9365C33.0289 37.2463 34.0086 37.2926 34.9445 37.0701C35.8804 36.8476 36.7344 36.3652 37.4082 35.6787C37.8854 35.1982 38.2618 34.6271 38.515 33.999C38.7682 33.371 38.8933 32.6986 38.8828 32.0215C38.8741 31.4646 39.0464 30.92 39.3738 30.4696C39.7012 30.0191 40.1659 29.687 40.6982 29.5234C41.4797 29.2792 42.1913 28.8514 42.7735 28.2758C43.3556 27.7002 43.7915 26.9935 44.0445 26.2148C44.2975 25.4362 44.3603 24.6083 44.2277 23.8004C44.0951 22.9925 43.7709 22.2281 43.2822 21.5713C42.9479 21.126 42.7671 20.5842 42.7671 20.0273C42.7671 19.4705 42.9479 18.9287 43.2822 18.4834C43.7709 17.8265 44.0951 17.0621 44.2277 16.2542C44.3603 15.4463 44.2975 14.6184 44.0445 13.8398C43.7915 13.0612 43.3556 12.3545 42.7735 11.7788C42.1913 11.2032 41.4797 10.7754 40.6982 10.5312C40.1659 10.3676 39.7012 10.0356 39.3738 9.58508C39.0464 9.13459 38.8741 8.58999 38.8828 8.03318C38.8933 7.35605 38.7682 6.68366 38.515 6.05559C38.2618 5.42751 37.8854 4.85643 37.4082 4.37595C36.931 3.89396 36.3636 3.51073 35.7382 3.24816C35.1129 2.98559 34.4419 2.84882 33.7637 2.84568C33.2043 2.84634 32.6488 2.93837 32.1191 3.11814C31.853 3.20807 31.5739 3.25392 31.293 3.25388C30.8797 3.25347 30.4726 3.15425 30.1055 2.9645C29.7384 2.77474 29.4219 2.49996 29.1826 2.16306C28.7089 1.49535 28.0821 0.950823 27.3548 0.575046C26.6274 0.199268 25.8206 0.00317383 25.002 0.00317383C24.1833 0.00317383 23.3765 0.199268 22.6491 0.575046C21.9218 0.950823 21.295 1.49535 20.8213 2.16306C20.582 2.49996 20.2656 2.77474 19.8984 2.9645C19.5313 3.15425 19.1242 3.25347 18.7109 3.25388C18.43 3.25388 18.1509 3.20803 17.8848 3.11814C17.3551 2.93839 16.7996 2.84635 16.2402 2.84568C15.5621 2.84869 14.8912 2.98531 14.2658 3.24771C13.6405 3.51011 13.073 3.89316 12.5957 4.37497C12.1185 4.85545 11.7422 5.42653 11.4889 6.05461C11.2357 6.68269 11.1106 7.35507 11.1211 8.0322C11.129 8.58889 10.956 9.13311 10.6281 9.58305C10.3002 10.033 9.83509 10.3643 9.30273 10.5273C8.52129 10.7715 7.8097 11.1993 7.22752 11.7749C6.64535 12.3506 6.20951 13.0573 5.95651 13.8359C5.7035 14.6145 5.64067 15.4424 5.77329 16.2503C5.9059 17.0582 6.2301 17.8226 6.71875 18.4795C7.05311 18.9248 7.23389 19.4666 7.23389 20.0234C7.23389 20.5803 7.05311 21.1221 6.71875 21.5674C6.22557 22.2222 5.89862 22.9869 5.76595 23.7958C5.63328 24.6048 5.69885 25.4338 5.95703 26.2119ZM8.75684 16.9648C8.5101 16.6335 8.34631 16.2478 8.27918 15.8402C8.21205 15.4325 8.24353 15.0147 8.37099 14.6217C8.49845 14.2288 8.71817 13.872 9.01178 13.5814C9.30539 13.2907 9.66434 13.0746 10.0586 12.9511C11.1133 12.6268 12.0342 11.9688 12.6828 11.0761C13.3315 10.1834 13.6727 9.10427 13.6553 8.00095C13.6498 7.6599 13.7126 7.32119 13.8398 7.00473C13.9671 6.68828 14.1564 6.40045 14.3965 6.15818C14.637 5.91434 14.9232 5.72028 15.2387 5.58707C15.5542 5.45386 15.8929 5.38411 16.2354 5.38181C16.5187 5.38238 16.8001 5.42922 17.0684 5.52048C17.5959 5.69886 18.1491 5.78991 18.7061 5.79001C19.5248 5.78942 20.3315 5.59304 21.059 5.21727C21.7864 4.8415 22.4134 4.29722 22.8877 3.62986C23.1268 3.29288 23.4431 3.01807 23.8102 2.82842C24.1772 2.63877 24.5844 2.53981 24.9976 2.53981C25.4107 2.53981 25.8179 2.63877 26.185 2.82842C26.552 3.01807 26.8683 3.29288 27.1074 3.62986C27.5817 4.29722 28.2087 4.8415 28.9362 5.21727C29.6636 5.59304 30.4703 5.78942 31.2891 5.79001C31.846 5.78996 32.3992 5.69891 32.9268 5.52048C33.195 5.42922 33.4764 5.38238 33.7598 5.38181C34.1024 5.38398 34.4413 5.45367 34.757 5.58688C35.0727 5.7201 35.359 5.91423 35.5996 6.15818C35.8397 6.40045 36.029 6.68828 36.1563 7.00473C36.2835 7.32119 36.3463 7.6599 36.3408 8.00095C36.3236 9.10477 36.6655 10.1843 37.3148 11.0771C37.9642 11.9698 38.886 12.6275 39.9414 12.9511C40.3358 13.0744 40.695 13.2903 40.9888 13.5809C41.2826 13.8714 41.5026 14.2281 41.6302 14.6212C41.7579 15.0142 41.7896 15.432 41.7225 15.8398C41.6555 16.2476 41.4918 16.6333 41.2451 16.9648C40.5824 17.8472 40.2241 18.9209 40.2241 20.0244C40.2241 21.1279 40.5824 22.2016 41.2451 23.084C41.4916 23.4154 41.6552 23.8011 41.7221 24.2088C41.7889 24.6164 41.7572 25.0341 41.6296 25.427C41.502 25.8199 41.2821 26.1765 40.9884 26.467C40.6947 26.7574 40.3357 26.9734 39.9414 27.0967C38.8867 27.421 37.9658 28.079 37.3172 28.9717C36.6685 29.8644 36.3273 30.9435 36.3447 32.0468C36.3496 32.3875 36.2865 32.7256 36.1591 33.0416C36.0316 33.3575 35.8424 33.6448 35.6025 33.8867C35.2631 34.2352 34.8318 34.4802 34.3586 34.593C33.8854 34.7059 33.3899 34.6821 32.9297 34.5244C31.8852 34.1714 30.7548 34.1648 29.7063 34.5054C28.6578 34.846 27.747 35.5157 27.1094 36.415C26.8703 36.752 26.554 37.0268 26.1869 37.2164C25.8198 37.4061 25.4127 37.5051 24.9995 37.5051C24.5863 37.5051 24.1792 37.4061 23.8121 37.2164C23.445 37.0268 23.1287 36.752 22.8896 36.415C22.252 35.5159 21.3415 34.8463 20.2932 34.5057C19.2448 34.1651 18.1146 34.1717 17.0703 34.5244C16.6101 34.6821 16.1146 34.7059 15.6414 34.593C15.1682 34.4802 14.7369 34.2352 14.3975 33.8867C14.1574 33.6444 13.9681 33.3566 13.8408 33.0401C13.7135 32.7237 13.6508 32.385 13.6562 32.0439C13.673 30.941 13.3313 29.8624 12.6825 28.9703C12.0338 28.0781 11.113 27.4207 10.0586 27.0967C9.66417 26.9734 9.30502 26.7575 9.01119 26.4669C8.71736 26.1764 8.49742 25.8197 8.36976 25.4266C8.2421 25.0336 8.21045 24.6158 8.27746 24.208C8.34446 23.8002 8.50817 23.4145 8.75488 23.083C9.41749 22.2008 9.77583 21.1274 9.776 20.0241C9.77618 18.9208 9.41819 17.8472 8.75586 16.9648H8.75684ZM2.07617 43.8222C2.34098 44.2298 2.71919 44.5511 3.16425 44.7464C3.60931 44.9418 4.10179 45.0028 4.58105 44.9218L8.62695 44.2627L9.78418 48.1953C9.91791 48.6622 10.1852 49.0799 10.5532 49.3969C10.9212 49.7139 11.3739 49.9164 11.8555 49.9795C11.9742 49.9958 12.094 50.004 12.2139 50.0039C12.6385 50.0047 13.0562 49.8968 13.4274 49.6905C13.7985 49.4842 14.1106 49.1863 14.334 48.8252L18.9453 41.4931C19.1252 41.2082 19.1845 40.8635 19.1103 40.5349C19.036 40.2063 18.8342 39.9206 18.5493 39.7407C18.2644 39.5608 17.9197 39.5015 17.5911 39.5757C17.2624 39.65 16.9768 39.8518 16.7969 40.1367L12.207 47.4287L11.0273 43.4199C10.8617 42.8596 10.4975 42.3789 10.003 42.0678C9.50853 41.7567 8.9176 41.6364 8.34082 41.7295L4.21582 42.4004L8.72656 35.2314C8.89945 34.9467 8.95349 34.6053 8.87701 34.2811C8.80053 33.9569 8.59966 33.6757 8.31774 33.4982C8.03582 33.3207 7.69543 33.2612 7.36999 33.3324C7.04456 33.4036 6.76015 33.5999 6.57812 33.8789L2.04394 41.0888C1.78229 41.498 1.64594 41.9747 1.65166 42.4604C1.65739 42.946 1.80494 43.4194 2.07617 43.8222ZM47.9238 43.8222C48.1951 43.4192 48.3427 42.9457 48.3485 42.4599C48.3542 41.9741 48.2178 41.4972 47.9561 41.0879L43.4219 33.8867C43.2399 33.6077 42.9554 33.4114 42.63 33.3402C42.3046 33.269 41.9642 33.3285 41.6823 33.506C41.4003 33.6835 41.1995 33.9647 41.123 34.2889C41.0465 34.6132 41.1005 34.9545 41.2734 35.2392L45.7842 42.4082L41.6602 41.7363C41.0834 41.6432 40.4925 41.7635 39.998 42.0746C39.5035 42.3858 39.1393 42.8665 38.9736 43.4267L37.793 47.4326L33.2031 40.1367C33.0211 39.8577 32.7367 39.6614 32.4113 39.5902C32.0858 39.519 31.7454 39.5785 31.4635 39.756C31.1816 39.9335 30.9807 40.2147 30.9042 40.5389C30.8278 40.8632 30.8818 41.2045 31.0547 41.4892L35.667 48.8134C35.8894 49.1761 36.2011 49.4756 36.5723 49.6833C36.9435 49.891 37.3617 50.0001 37.7871 50C37.907 50.0001 38.0267 49.9919 38.1455 49.9756C38.6271 49.9125 39.0797 49.71 39.4477 49.393C39.8158 49.076 40.0831 48.6583 40.2168 48.1914L41.374 44.2588L45.4189 44.9218C45.8982 45.0028 46.3907 44.9418 46.8358 44.7464C47.2808 44.5511 47.659 44.2298 47.9238 43.8222Z" fill="#4472FF"/>
<path d="M22.8037 31.2784C23.5353 31.4216 24.279 31.4938 25.0244 31.4942C27.978 31.4934 30.818 30.3563 32.9561 28.3186C35.0941 26.2808 36.3662 23.4987 36.5089 20.5485C36.6515 17.5984 35.6537 14.7065 33.7221 12.472C31.7906 10.2376 29.0735 8.83185 26.1338 8.54615C23.1941 8.26045 20.2571 9.11668 17.9315 10.9374C15.6059 12.7581 14.0699 15.4038 13.6418 18.3262C13.2137 21.2486 13.9263 24.2236 15.6319 26.6349C17.3376 29.0462 19.9056 30.7089 22.8037 31.2784ZM16.2383 18.3135C16.6351 16.2843 17.7235 14.4555 19.3178 13.139C20.9122 11.8224 22.9138 11.0996 24.9814 11.0938C25.5617 11.0941 26.1405 11.1503 26.71 11.2617C28.443 11.6 30.0368 12.4446 31.2899 13.6887C32.5429 14.9328 33.3989 16.5205 33.7495 18.2511C34.1002 19.9817 33.9298 21.7774 33.2599 23.4111C32.59 25.0449 31.4507 26.4433 29.986 27.4295C28.5214 28.4158 26.7972 28.9455 25.0314 28.9518C23.2657 28.9581 21.5377 28.4406 20.0661 27.4649C18.5944 26.4891 17.4452 25.0988 16.7637 23.4699C16.0821 21.841 15.899 20.0465 16.2373 18.3135H16.2383Z" fill="#4472FF"/>
<path d="M20.418 21.2051C21.2955 21.7113 22.0241 22.4399 22.5303 23.3174C22.637 23.5028 22.7889 23.6581 22.9717 23.7691C23.1546 23.8801 23.3625 23.943 23.5762 23.9522H23.6328C23.8376 23.9521 24.0393 23.9025 24.2207 23.8076C24.4021 23.7127 24.5579 23.5754 24.6748 23.4073C26.0302 21.4553 27.7239 19.7617 29.6758 18.4063C29.9521 18.2136 30.1406 17.919 30.1998 17.5873C30.2589 17.2557 30.1839 16.9141 29.9912 16.6377C29.7985 16.3614 29.5039 16.1729 29.1723 16.1137C28.8406 16.0546 28.499 16.1296 28.2227 16.3223C26.5023 17.5157 24.9574 18.9439 23.6328 20.5655C23.0644 19.949 22.4059 19.4222 21.6797 19.003C21.3879 18.8346 21.0412 18.7891 20.7159 18.8763C20.3905 18.9636 20.1132 19.1765 19.9448 19.4683C19.7765 19.7601 19.7309 20.1068 19.8182 20.4321C19.9055 20.7575 20.1184 21.0348 20.4102 21.2032L20.418 21.2051Z" fill="#4472FF"/>
</g>
<defs>
<clipPath id="clip0_369_932">
<rect width="50" height="50" fill="white"/>
</clipPath>
</defs>
</svg>
