<svg width="15" height="11" viewBox="0 0 15 11" fill="none" xmlns="http://www.w3.org/2000/svg">
<path id="Vector" d="M14.999 1.81936V9.32874C15.0003 9.35015 15.0003 9.37162 14.999 9.39302L10.7306 5.29598L14.999 1.81936ZM5.11536 4.93825L6.56327 6.11762C6.83323 6.33664 7.16202 6.45509 7.5 6.45509C7.83798 6.45509 8.16677 6.33664 8.43673 6.11762L9.88464 4.93825L14.8278 0.91387C14.6975 0.639325 14.4995 0.408769 14.2555 0.247544C14.0115 0.0863186 13.731 0.000665726 13.4447 0H1.55526C1.269 0.000665726 0.98846 0.0863186 0.744463 0.247544C0.500467 0.408769 0.302464 0.639325 0.172218 0.91387L5.11536 4.93825ZM0.000959554 1.81936V9.32874C-0.000319851 9.35015 -0.000319851 9.37162 0.000959554 9.39302L4.26944 5.29598L0.000959554 1.81936ZM8.90639 6.77997C8.50123 7.10915 8.00752 7.28722 7.5 7.28722C6.99248 7.28722 6.49877 7.10915 6.09361 6.77997L4.90518 5.8102L0.268226 10.2622C0.411529 10.4905 0.604884 10.6773 0.831181 10.806C1.05748 10.9347 1.30974 11.0013 1.56564 11H13.4447C13.7006 11.0013 13.9529 10.9347 14.1792 10.806C14.4055 10.6773 14.5988 10.4905 14.7422 10.2622L10.0948 5.8102L8.90639 6.77997Z" fill="#996633"/>
</svg>
