<svg width="60" height="60" viewBox="0 0 60 60" fill="none" xmlns="http://www.w3.org/2000/svg">
<path d="M30.4998 41C31.9831 41 33.4332 40.5601 34.6665 39.736C35.8999 38.9119 36.8612 37.7406 37.4289 36.3701C37.9965 34.9997 38.145 33.4917 37.8556 32.0368C37.5663 30.582 36.852 29.2456 35.8031 28.1967C34.7542 27.1478 33.4178 26.4335 31.9629 26.1441C30.5081 25.8547 29.0001 26.0032 27.6296 26.5709C26.2592 27.1386 25.0878 28.0999 24.2637 29.3332C23.4396 30.5666 22.9998 32.0166 22.9998 33.5C23.0019 35.4885 23.7928 37.3948 25.1989 38.8009C26.6049 40.2069 28.5113 40.9978 30.4998 41ZM30.4998 27.5C31.6864 27.5 32.8465 27.8519 33.8332 28.5112C34.8199 29.1705 35.5889 30.1075 36.043 31.2039C36.4972 32.3003 36.616 33.5067 36.3845 34.6705C36.153 35.8344 35.5815 36.9035 34.7424 37.7426C33.9033 38.5818 32.8342 39.1532 31.6703 39.3847C30.5064 39.6162 29.3 39.4974 28.2037 39.0433C27.1073 38.5892 26.1702 37.8201 25.5109 36.8334C24.8517 35.8467 24.4998 34.6867 24.4998 33.5C24.5015 31.9093 25.1343 30.3842 26.2591 29.2593C27.3839 28.1345 28.909 27.5018 30.4998 27.5Z" fill="#4472FF"/>
<path d="M30.5002 35.75C30.3013 35.75 30.1106 35.671 29.9699 35.5303C29.8293 35.3897 29.7502 35.1989 29.7502 35C29.7502 34.8011 29.6712 34.6103 29.5306 34.4697C29.3899 34.329 29.1992 34.25 29.0002 34.25C28.8013 34.25 28.6106 34.329 28.4699 34.4697C28.3293 34.6103 28.2502 34.8011 28.2502 35C28.2522 35.4637 28.3973 35.9155 28.6658 36.2935C28.9343 36.6716 29.3131 36.9574 29.7502 37.112V38C29.7502 38.1989 29.8293 38.3897 29.9699 38.5303C30.1106 38.671 30.3013 38.75 30.5002 38.75C30.6992 38.75 30.8899 38.671 31.0306 38.5303C31.1712 38.3897 31.2502 38.1989 31.2502 38V37.112C31.7503 36.9359 32.1718 36.5885 32.4402 36.1313C32.7086 35.6742 32.8066 35.1368 32.7168 34.6144C32.627 34.0919 32.3551 33.6181 31.9494 33.2769C31.5437 32.9356 31.0304 32.749 30.5002 32.75C30.3519 32.75 30.2069 32.706 30.0836 32.6236C29.9602 32.5412 29.8641 32.4241 29.8073 32.287C29.7506 32.15 29.7357 31.9992 29.7647 31.8537C29.7936 31.7082 29.865 31.5746 29.9699 31.4697C30.0748 31.3648 30.2084 31.2933 30.3539 31.2644C30.4994 31.2355 30.6502 31.2503 30.7873 31.3071C30.9243 31.3639 31.0414 31.46 31.1238 31.5833C31.2063 31.7067 31.2502 31.8517 31.2502 32C31.2502 32.1989 31.3293 32.3897 31.4699 32.5303C31.6106 32.671 31.8013 32.75 32.0002 32.75C32.1992 32.75 32.3899 32.671 32.5306 32.5303C32.6712 32.3897 32.7502 32.1989 32.7502 32C32.7483 31.5363 32.6032 31.0845 32.3347 30.7065C32.0662 30.3284 31.6874 30.0426 31.2502 29.888V29C31.2502 28.8011 31.1712 28.6103 31.0306 28.4697C30.8899 28.329 30.6992 28.25 30.5002 28.25C30.3013 28.25 30.1106 28.329 29.9699 28.4697C29.8293 28.6103 29.7502 28.8011 29.7502 29V29.888C29.2502 30.0641 28.8287 30.4115 28.5603 30.8687C28.2918 31.3258 28.1939 31.8632 28.2837 32.3856C28.3735 32.9081 28.6454 33.3819 29.0511 33.7231C29.4568 34.0644 29.9701 34.251 30.5002 34.25C30.6992 34.25 30.8899 34.329 31.0306 34.4697C31.1712 34.6103 31.2502 34.8011 31.2502 35C31.2502 35.1989 31.1712 35.3897 31.0306 35.5303C30.8899 35.671 30.6992 35.75 30.5002 35.75Z" fill="#4472FF"/>
<path d="M50.9135 33.5H46.0535C44.9128 29.7786 42.7571 26.4489 39.8285 23.885L35.6615 20.2385C35.9846 19.9808 36.2298 19.6385 36.3697 19.2496C36.5097 18.8607 36.5388 18.4406 36.4538 18.0361C36.3689 17.6317 36.1732 17.2587 35.8887 16.959C35.6042 16.6592 35.242 16.4444 34.8425 16.3385L38.6248 10.6655C38.7151 10.5303 38.759 10.3694 38.7499 10.2071C38.7409 10.0448 38.6793 9.8898 38.5745 9.7655C38.5557 9.7445 38.5317 9.73175 38.5115 9.71225L38.5175 9.70625C37.3622 8.61786 35.8372 8.0081 34.25 8C32.9977 8.00232 31.7758 8.38582 30.7467 9.0995C28.418 8.081 26 7.06025 22.55 9.65C22.3966 9.76504 22.293 9.93447 22.2607 10.1235C22.2283 10.3125 22.2696 10.5067 22.376 10.6662L26.1583 16.3393C25.7977 16.4342 25.4668 16.6183 25.1959 16.8745C24.925 17.1308 24.7229 17.451 24.608 17.8057C24.4932 18.1605 24.4693 18.5384 24.5387 18.9048C24.608 19.2711 24.7682 19.6142 25.0047 19.9025L21.455 23.216L22.4795 24.3118L26.2955 20.75H33.968L38.843 25.0138C41.4431 27.2911 43.3892 30.2204 44.4808 33.5H41.5865C41.0333 33.5006 40.5029 33.7206 40.1118 34.1118C39.7206 34.5029 39.5006 35.0333 39.5 35.5865V37.4135C39.5022 37.904 39.6787 38.3777 39.998 38.75C39.6787 39.1223 39.5022 39.596 39.5 40.0865V41.9135C39.503 42.1334 39.541 42.3513 39.6125 42.5592C39.1551 42.6661 38.747 42.9241 38.4544 43.2916C38.1618 43.6591 38.0017 44.1145 38 44.5843V46.4113C38.0017 46.881 38.1618 47.3364 38.4544 47.7039C38.747 48.0714 39.1551 48.3294 39.6125 48.4362C39.541 48.6442 39.503 48.8621 39.5 49.082V50.909C39.5034 50.997 39.5122 51.0846 39.5262 51.1715C38.7866 51.3869 38.0204 51.4975 37.25 51.5H37.1555C37.2152 51.3101 37.2471 51.1125 37.25 50.9135V49.0865C37.2478 48.596 37.0713 48.1223 36.752 47.75C37.0713 47.3777 37.2478 46.904 37.25 46.4135V44.5865C37.2494 44.0333 37.0294 43.5029 36.6382 43.1118C36.2471 42.7206 35.7167 42.5006 35.1635 42.5H25.8365C25.2833 42.5006 24.7529 42.7206 24.3618 43.1118C23.9706 43.5029 23.7506 44.0333 23.75 44.5865V46.4135C23.7522 46.904 23.9287 47.3777 24.248 47.75C23.9287 48.1223 23.7522 48.596 23.75 49.0865V50.9135C23.7529 51.1125 23.7848 51.3101 23.8445 51.5H23.75C22.9798 51.499 22.2136 51.3899 21.4738 51.176C21.4878 51.0891 21.4966 51.0014 21.5 50.9135V49.0865C21.497 48.8666 21.459 48.6487 21.3875 48.4408C21.8449 48.3339 22.253 48.0759 22.5456 47.7084C22.8382 47.3409 22.9983 46.8855 23 46.4157V44.5865C22.9983 44.1168 22.8382 43.6613 22.5456 43.2938C22.253 42.9264 21.8449 42.6683 21.3875 42.5615C21.459 42.3536 21.497 42.1356 21.5 41.9157V40.0865C21.4978 39.596 21.3213 39.1223 21.002 38.75C21.3213 38.3777 21.4978 37.904 21.5 37.4135V35.5865C21.4994 35.0333 21.2794 34.5029 20.8882 34.1118C20.4971 33.7206 19.9667 33.5006 19.4135 33.5H16.391C17.3363 30.4562 20.3632 26.4215 22.625 24.1759L21.455 23.216C18.9049 25.7446 15.8157 30.0481 14.825 33.5H10.0865C9.53331 33.5006 9.00295 33.7206 8.61178 34.1118C8.22061 34.5029 8.0006 35.0333 8 35.5865V37.4135C8.00217 37.904 8.17869 38.3777 8.498 38.75C8.17869 39.1223 8.00217 39.596 8 40.0865V41.9135C8.0017 42.3832 8.1618 42.8387 8.45442 43.2062C8.74704 43.5736 9.15506 43.8317 9.6125 43.9385C9.541 44.1464 9.50303 44.3644 9.5 44.5843V46.4113C9.50303 46.6311 9.541 46.8491 9.6125 47.057C9.15431 47.164 8.74573 47.4227 8.45303 47.7911C8.16033 48.1595 8.00069 48.616 8 49.0865V50.9135C8.0006 51.4667 8.22061 51.9971 8.61178 52.3882C9.00295 52.7794 9.53331 52.9994 10.0865 53H19.4135C19.8963 52.998 20.3631 52.8268 20.7327 52.5163C21.7067 52.8355 22.725 52.9988 23.75 53H37.25C38.275 52.9988 39.2933 52.8355 40.2673 52.5163C40.6369 52.8268 41.1037 52.998 41.5865 53H50.9135C51.4667 52.9994 51.9971 52.7794 52.3882 52.3882C52.7794 51.9971 52.9994 51.4667 53 50.9135V49.0865C52.9983 48.6168 52.8382 48.1613 52.5456 47.7938C52.253 47.4264 51.8449 47.1683 51.3875 47.0615C51.459 46.8536 51.497 46.6356 51.5 46.4157V44.5865C51.497 44.3666 51.459 44.1487 51.3875 43.9408C51.8449 43.8339 52.253 43.5759 52.5456 43.2084C52.8382 42.8409 52.9983 42.3855 53 41.9157V40.0865C52.9978 39.596 52.8213 39.1223 52.502 38.75C52.8213 38.3777 52.9978 37.904 53 37.4135V35.5865C52.9994 35.0333 52.7794 34.5029 52.3882 34.1118C51.9971 33.7206 51.4667 33.5006 50.9135 33.5ZM36.383 10.025C35.114 10.351 33.7758 10.2825 32.5467 9.8285C33.0886 9.61207 33.6666 9.5006 34.25 9.5C34.9917 9.51024 35.7213 9.68981 36.383 10.025ZM30.2083 10.5035C31.895 11.2422 33.7573 12.0598 36.1955 11.6075L33.0988 16.25H27.9012L24.0312 10.445C26.4867 8.8715 28.1465 9.5975 30.2083 10.5013V10.5035ZM26.75 19.25C26.5511 19.25 26.3603 19.171 26.2197 19.0303C26.079 18.8897 26 18.6989 26 18.5C26 18.3011 26.079 18.1103 26.2197 17.9697C26.3603 17.829 26.5511 17.75 26.75 17.75H34.25C34.4489 17.75 34.6397 17.829 34.7803 17.9697C34.921 18.1103 35 18.3011 35 18.5C35 18.6989 34.921 18.8897 34.7803 19.0303C34.6397 19.171 34.4489 19.25 34.25 19.25H26.75ZM21.5 46.4135C21.4998 46.569 21.4379 46.7181 21.328 46.828C21.2181 46.9379 21.069 46.9998 20.9135 47H11.5865C11.431 46.9998 11.2819 46.9379 11.172 46.828C11.0621 46.7181 11.0002 46.569 11 46.4135V44.5865C11.0002 44.431 11.0621 44.2819 11.172 44.172C11.2819 44.0621 11.431 44.0002 11.5865 44H12.5V45.5H14V44H15.5V45.5H17V44H18.5V45.5H20V44H20.9135C21.069 44.0002 21.2181 44.0621 21.328 44.172C21.4379 44.2819 21.4998 44.431 21.5 44.5865V46.4135ZM9.5 35.5865C9.5002 35.431 9.56205 35.2819 9.672 35.172C9.78195 35.0621 9.93101 35.0002 10.0865 35H11V36.5H12.5V35H14V36.5H15.5V35H17V36.5H18.5V35H19.4135C19.569 35.0002 19.7181 35.0621 19.828 35.172C19.9379 35.2819 19.9998 35.431 20 35.5865V37.4135C19.9998 37.569 19.9379 37.7181 19.828 37.828C19.7181 37.9379 19.569 37.9998 19.4135 38H10.0865C9.93101 37.9998 9.78195 37.9379 9.672 37.828C9.56205 37.7181 9.5002 37.569 9.5 37.4135V35.5865ZM9.5 40.0865C9.5002 39.931 9.56205 39.7819 9.672 39.672C9.78195 39.5621 9.93101 39.5002 10.0865 39.5H11V41H12.5V39.5H14V41H15.5V39.5H17V41H18.5V39.5H19.4135C19.569 39.5002 19.7181 39.5621 19.828 39.672C19.9379 39.7819 19.9998 39.931 20 40.0865V41.9135C19.9998 42.069 19.9379 42.2181 19.828 42.328C19.7181 42.4379 19.569 42.4998 19.4135 42.5H10.0865C9.93101 42.4998 9.78195 42.4379 9.672 42.328C9.56205 42.2181 9.5002 42.069 9.5 41.9135V40.0865ZM20 50.9135C19.9998 51.069 19.9379 51.2181 19.828 51.328C19.7181 51.4379 19.569 51.4998 19.4135 51.5H10.0865C9.93101 51.4998 9.78195 51.4379 9.672 51.328C9.56205 51.2181 9.5002 51.069 9.5 50.9135V49.0865C9.5002 48.931 9.56205 48.7819 9.672 48.672C9.78195 48.5621 9.93101 48.5002 10.0865 48.5H11V50H12.5V48.5H14V50H15.5V48.5H17V50H18.5V48.5H19.4135C19.569 48.5002 19.7181 48.5621 19.828 48.672C19.9379 48.7819 19.9998 48.931 20 49.0865V50.9135ZM25.25 44.5865C25.2502 44.431 25.3121 44.2819 25.422 44.172C25.5319 44.0621 25.681 44.0002 25.8365 44H26.75V45.5H28.25V44H29.75V45.5H31.25V44H32.75V45.5H34.25V44H35.1635C35.319 44.0002 35.4681 44.0621 35.578 44.172C35.6879 44.2819 35.7498 44.431 35.75 44.5865V46.4135C35.7498 46.569 35.6879 46.7181 35.578 46.828C35.4681 46.9379 35.319 46.9998 35.1635 47H25.8365C25.681 46.9998 25.5319 46.9379 25.422 46.828C25.3121 46.7181 25.2502 46.569 25.25 46.4135V44.5865ZM25.8365 51.5C25.681 51.4998 25.5319 51.4379 25.422 51.328C25.3121 51.2181 25.2502 51.069 25.25 50.9135V49.0865C25.2502 48.931 25.3121 48.7819 25.422 48.672C25.5319 48.5621 25.681 48.5002 25.8365 48.5H26.75V50H28.25V48.5H29.75V50H31.25V48.5H32.75V50H34.25V48.5H35.1635C35.319 48.5002 35.4681 48.5621 35.578 48.672C35.6879 48.7819 35.7498 48.931 35.75 49.0865V50.9135C35.7498 51.069 35.6879 51.2181 35.578 51.328C35.4681 51.4379 35.319 51.4998 35.1635 51.5H25.8365ZM41 35.5865C41.0002 35.431 41.0621 35.2819 41.172 35.172C41.2819 35.0621 41.431 35.0002 41.5865 35H42.5V36.5H44V35H45.5V36.5H47V35H48.5V36.5H50V35H50.9135C51.069 35.0002 51.2181 35.0621 51.328 35.172C51.4379 35.2819 51.4998 35.431 51.5 35.5865V37.4135C51.4998 37.569 51.4379 37.7181 51.328 37.828C51.2181 37.9379 51.069 37.9998 50.9135 38H41.5865C41.431 37.9998 41.2819 37.9379 41.172 37.828C41.0621 37.7181 41.0002 37.569 41 37.4135V35.5865ZM39.5 44.5865C39.5002 44.431 39.5621 44.2819 39.672 44.172C39.7819 44.0621 39.931 44.0002 40.0865 44H41V45.5H42.5V44H44V45.5H45.5V44H47V45.5H48.5V44H49.4135C49.569 44.0002 49.7181 44.0621 49.828 44.172C49.9379 44.2819 49.9998 44.431 50 44.5865V46.4135C49.9998 46.569 49.9379 46.7181 49.828 46.828C49.7181 46.9379 49.569 46.9998 49.4135 47H40.0865C39.931 46.9998 39.7819 46.9379 39.672 46.828C39.5621 46.7181 39.5002 46.569 39.5 46.4135V44.5865ZM51.5 50.9135C51.4998 51.069 51.4379 51.2181 51.328 51.328C51.2181 51.4379 51.069 51.4998 50.9135 51.5H41.5865C41.431 51.4998 41.2819 51.4379 41.172 51.328C41.0621 51.2181 41.0002 51.069 41 50.9135V49.0865C41.0002 48.931 41.0621 48.7819 41.172 48.672C41.2819 48.5621 41.431 48.5002 41.5865 48.5H42.5V50H44V48.5H45.5V50H47V48.5H48.5V50H50V48.5H50.9135C51.069 48.5002 51.2181 48.5621 51.328 48.672C51.4379 48.7819 51.4998 48.931 51.5 49.0865V50.9135ZM51.5 41.9135C51.4998 42.069 51.4379 42.2181 51.328 42.328C51.2181 42.4379 51.069 42.4998 50.9135 42.5H41.5865C41.431 42.4998 41.2819 42.4379 41.172 42.328C41.0621 42.2181 41.0002 42.069 41 41.9135V40.0865C41.0002 39.931 41.0621 39.7819 41.172 39.672C41.2819 39.5621 41.431 39.5002 41.5865 39.5H42.5V41H44V39.5H45.5V41H47V39.5H48.5V41H50V39.5H50.9135C51.069 39.5002 51.2181 39.5621 51.328 39.672C51.4379 39.7819 51.4998 39.931 51.5 40.0865V41.9135Z" fill="#4472FF"/>
</svg>
