<svg width="12" height="12" viewBox="0 0 12 12" fill="none" xmlns="http://www.w3.org/2000/svg">
<path id="Vector" d="M0.631579 3.95745C0.821053 3.95745 0.947368 3.89362 1.07368 3.76596L3.72632 1.08511C3.97895 0.829787 3.97895 0.446809 3.72632 0.191489C3.47368 -0.0638298 3.09474 -0.0638298 2.84211 0.191489L0.189474 2.87234C0.0631579 2.93617 0 3.12766 0 3.31915C0 3.6383 0.315789 3.95745 0.631579 3.95745ZM11.8105 8.23404C11.5579 7.97872 11.1789 7.97872 10.9263 8.23404L8.27368 10.9149C8.14737 11.0426 8.08421 11.1702 8.08421 11.3617C8.08421 11.7447 8.33684 12 8.71579 12C8.90526 12 9.03158 11.9362 9.1579 11.8085L11.8105 9.12766C12.0632 8.93617 12.0632 8.48936 11.8105 8.23404ZM11.3684 3.31915L8.71579 0.638298C7.95789 -0.0638299 6.75789 -0.0638299 6.06316 0.638298L0.631579 6C-0.126316 6.76596 -0.126316 7.97872 0.631579 8.68085L3.28421 11.3617C4.04211 12.1277 5.24211 12.1277 5.93684 11.3617L11.3053 5.93617C12.1263 5.23404 12.1263 4.02128 11.3684 3.31915ZM4.67368 8.23404C4.42105 8.48936 4.04211 8.48936 3.78947 8.23404C3.53684 7.97872 3.53684 7.59575 3.78947 7.34043C4.04211 7.08511 4.42105 7.08511 4.67368 7.34043C4.92632 7.59575 4.92632 7.97872 4.67368 8.23404Z" fill="#996633"/>
</svg>
