<svg width="60" height="60" viewBox="0 0 60 60" fill="none" xmlns="http://www.w3.org/2000/svg">
<path d="M47.9813 35.5531L45.3469 34.475C45.289 34.4303 45.2261 34.3926 45.1594 34.3625L42.6563 33.3687L36.7875 30.9687C37.8141 29.9784 38.6611 28.8174 39.2906 27.5375C40.0241 27.5348 40.7337 27.2761 41.2969 26.8062C42.0758 26.1536 42.6551 25.2948 42.9685 24.3281C43.2819 23.3615 43.3166 22.3261 43.0688 21.3406C42.9545 20.8789 42.7291 20.4521 42.4121 20.0975C42.0951 19.7429 41.6961 19.4713 41.25 19.3062C41.1216 19.2642 40.9899 19.2329 40.8563 19.2125C40.8563 18.6594 40.8563 18.1531 40.7719 17.6656C40.9712 17.6054 41.1448 17.4806 41.2653 17.3109C41.3858 17.1411 41.4464 16.9361 41.4375 16.7281V12.0406C43.6219 11.4219 44.5031 10.7094 44.9719 10.1094C45.2167 9.80065 45.3858 9.43886 45.4656 9.05302C45.5453 8.66717 45.5336 8.26799 45.4313 7.8875V7.80312C45.0281 5.4875 38.8688 2 30.5344 2C22.2 2 16.0594 5.51562 15.6281 7.90625C15.5258 8.28674 15.5141 8.68592 15.5938 9.07177C15.6736 9.45762 15.8427 9.8194 16.0875 10.1281C16.5563 10.7281 17.4375 11.4406 19.6219 12.0594V16.7469C19.613 16.9549 19.6736 17.1599 19.7941 17.3296C19.9146 17.4994 20.0882 17.6242 20.2875 17.6844C20.2875 18.1719 20.2219 18.6781 20.2031 19.2313C20.0694 19.2511 19.9377 19.2825 19.8094 19.325C19.3513 19.4824 18.9398 19.7518 18.6124 20.1088C18.2849 20.4657 18.0518 20.8988 17.9344 21.3687C17.6707 22.3537 17.7066 23.3949 18.0375 24.3594C18.394 25.5534 19.2009 26.562 20.2875 27.1719C20.7264 27.403 21.2166 27.5191 21.7125 27.5094C22.3419 28.7894 23.1889 29.9504 24.2156 30.9406L13.125 35.5531C12.6319 35.6062 12.1756 35.8392 11.8435 36.2076C11.5114 36.5761 11.3268 37.054 11.325 37.55V51.1812C11.325 51.7158 11.5374 52.2285 11.9154 52.6065C12.2934 52.9845 12.8061 53.1969 13.3406 53.1969H47.8125C48.3389 53.1846 48.8396 52.9669 49.2076 52.5902C49.5755 52.2135 49.7814 51.7078 49.7813 51.1812V37.55C49.7795 37.054 49.5949 36.5761 49.2628 36.2076C48.9307 35.8392 48.4744 35.6062 47.9813 35.5531ZM38.9156 33.9125L41.9344 35.1031L43.725 35.8344L43.5375 36.6312L38.7281 34.7562L38.9156 33.9125ZM17.5688 8.99375C17.4923 8.89914 17.4424 8.78585 17.4243 8.66556C17.4062 8.54527 17.4205 8.42232 17.4656 8.30938V8.17813C17.7281 7.11875 22.7813 3.92188 30.5156 3.92188C38.25 3.92188 43.3313 7.11875 43.6031 8.15937V8.29063C43.6483 8.40357 43.6626 8.52652 43.6445 8.64681C43.6263 8.7671 43.5765 8.88038 43.5 8.975C43.0125 9.59375 40.7719 11.0844 30.5625 11.5063C20.2969 11.0844 18.0563 9.59375 17.5688 8.99375ZM30.5813 13.4C33.6018 13.3247 36.6128 13.0301 39.5906 12.5188V16.1094C33.681 17.7993 27.4159 17.7993 21.5063 16.1094V12.4906C24.5058 13.0063 27.5387 13.3039 30.5813 13.3813V13.4ZM23.1938 26.0844C23.1449 25.9697 23.0736 25.8659 22.9842 25.7791C22.8947 25.6923 22.7888 25.6242 22.6727 25.5788C22.5566 25.5334 22.4326 25.5116 22.308 25.5147C22.1833 25.5178 22.0606 25.5458 21.9469 25.5969H21.8625C21.6464 25.634 21.4242 25.5942 21.2344 25.4844C20.5893 25.0866 20.1175 24.4608 19.9125 23.7313C19.703 23.1277 19.6736 22.4762 19.8281 21.8563C19.8635 21.6861 19.9377 21.5265 20.045 21.3899C20.1524 21.2532 20.2899 21.1433 20.4469 21.0688C20.5964 21.0219 20.7567 21.0219 20.9063 21.0688C21.0401 21.1083 21.181 21.1174 21.3189 21.0955C21.4567 21.0736 21.5878 21.0212 21.7028 20.9422C21.8178 20.8631 21.9137 20.7594 21.9835 20.6386C22.0533 20.5177 22.0952 20.3828 22.1063 20.2437C22.1063 19.4844 22.1063 18.8094 22.1719 18.1812C24.9099 18.8667 27.7212 19.2162 30.5438 19.2219C33.3663 19.2162 36.1776 18.8667 38.9156 18.1812C38.9156 18.8094 38.9813 19.4844 38.9813 20.2437C38.9823 20.3896 39.0173 20.5331 39.0835 20.663C39.1498 20.7929 39.2454 20.9056 39.3628 20.9921C39.4802 21.0785 39.6162 21.1364 39.7599 21.1611C39.9036 21.1858 40.0511 21.1767 40.1906 21.1344C40.3433 21.0868 40.5068 21.0868 40.6594 21.1344C40.8142 21.2106 40.9495 21.3212 41.0551 21.4577C41.1607 21.5942 41.2338 21.7529 41.2688 21.9219C41.4115 22.5455 41.3832 23.1961 41.1868 23.805C40.9904 24.4139 40.6333 24.9585 40.1531 25.3812C40.0279 25.4957 39.8789 25.5811 39.7169 25.6313C39.5548 25.6815 39.3837 25.6954 39.2156 25.6719H39.1313C39.0176 25.6208 38.8948 25.5928 38.7702 25.5897C38.6456 25.5866 38.5216 25.6084 38.4055 25.6538C38.2894 25.6992 38.1835 25.7673 38.094 25.8541C38.0045 25.9409 37.9333 26.0447 37.8844 26.1594C36.3844 29.6469 33.5625 31.7844 30.5344 31.7844C27.5063 31.7844 24.6938 29.6187 23.1938 26.0844ZM22.5 34.7375L17.6906 36.6125L17.4938 35.7875L22.3031 33.9125L22.5 34.7375ZM28.8375 51.3219L29.775 39.9031H31.4156L32.3531 51.3219H28.8375ZM28.9219 37.8875V36.1812C28.9219 36.144 28.9367 36.1082 28.9631 36.0818C28.9895 36.0554 29.0252 36.0406 29.0625 36.0406H32.1094C32.1467 36.0406 32.1825 36.0554 32.2088 36.0818C32.2352 36.1082 32.25 36.144 32.25 36.1812V37.925C32.25 37.9623 32.2352 37.9981 32.2088 38.0244C32.1825 38.0508 32.1467 38.0656 32.1094 38.0656H29.0625C29.0377 38.074 29.011 38.0752 28.9856 38.0692C28.9601 38.0633 28.9367 38.0503 28.9182 38.0318C28.8997 38.0133 28.8867 37.9899 28.8808 37.9645C28.8748 37.939 28.876 37.9123 28.8844 37.8875H28.9219ZM47.9063 51.1812C47.9063 51.2185 47.8915 51.2543 47.8651 51.2807C47.8387 51.3071 47.8029 51.3219 47.7656 51.3219H42.1875V48.8375C42.1875 48.5889 42.0887 48.3504 41.9129 48.1746C41.7371 47.9988 41.4987 47.9 41.25 47.9C41.0014 47.9 40.7629 47.9988 40.5871 48.1746C40.4113 48.3504 40.3125 48.5889 40.3125 48.8375V51.3219H34.1719L33.2344 39.5375C33.5008 39.3526 33.7184 39.106 33.8686 38.8186C34.0188 38.5312 34.0972 38.2118 34.0969 37.8875V36.1812C34.0969 35.6467 33.8845 35.134 33.5065 34.756C33.1285 34.378 32.6158 34.1656 32.0813 34.1656H29.0625C28.7947 34.1606 28.5285 34.2091 28.2796 34.3082C28.0308 34.4072 27.8041 34.5549 27.6129 34.7426C27.4218 34.9302 27.27 35.1541 27.1663 35.4011C27.0627 35.6482 27.0093 35.9134 27.0094 36.1812V37.925C27.0091 38.2493 27.0874 38.5687 27.2376 38.8561C27.3879 39.1435 27.6055 39.3901 27.8719 39.575L26.9344 51.3594H20.8125V48.8375C20.8125 48.5889 20.7137 48.3504 20.5379 48.1746C20.3621 47.9988 20.1237 47.9 19.875 47.9C19.6264 47.9 19.3879 47.9988 19.2121 48.1746C19.0363 48.3504 18.9375 48.5889 18.9375 48.8375V51.3219H13.3125C13.294 51.3219 13.2758 51.3182 13.2587 51.3112C13.2416 51.3041 13.2261 51.2937 13.2131 51.2807C13.2 51.2676 13.1897 51.2521 13.1826 51.2351C13.1755 51.218 13.1719 51.1997 13.1719 51.1812V37.55C13.1719 37.5127 13.1867 37.4769 13.2131 37.4506C13.2394 37.4242 13.2752 37.4094 13.3125 37.4094C13.4344 37.4109 13.5554 37.3886 13.6688 37.3438L15.6938 36.5187L16.0688 38.1125C16.1183 38.3222 16.2385 38.5085 16.4092 38.64C16.58 38.7715 16.7908 38.8401 17.0063 38.8344C17.125 38.8347 17.2427 38.8124 17.3531 38.7687L23.9156 36.1812C24.1259 36.0992 24.2995 35.944 24.4046 35.7442C24.5096 35.5445 24.5391 35.3135 24.4875 35.0938L24.0188 33.1156L26.0156 32.3C27.3701 33.1627 28.9426 33.621 30.5485 33.621C32.1543 33.621 33.7268 33.1627 35.0813 32.3L37.1719 33.1531L36.7125 35.0938C36.6604 35.3123 36.6885 35.5424 36.7917 35.742C36.895 35.9416 37.0665 36.0975 37.275 36.1812L43.8375 38.7687C43.9479 38.8124 44.0657 38.8347 44.1844 38.8344C44.3998 38.8401 44.6107 38.7715 44.7814 38.64C44.9522 38.5085 45.0724 38.3222 45.1219 38.1125L45.4875 36.5469L47.4281 37.3438C47.5415 37.3886 47.6625 37.4109 47.7844 37.4094C47.8217 37.4094 47.8575 37.4242 47.8838 37.4506C47.9102 37.4769 47.925 37.5127 47.925 37.55L47.9063 51.1812Z" fill="#4472FF"/>
</svg>
