<svg width="29" height="51" viewBox="0 0 29 51" fill="none" xmlns="http://www.w3.org/2000/svg">
<path d="M27.5022 10.186H25.0779L23.3158 6.67183C23.2311 6.50385 23.1016 6.36259 22.9416 6.2637C22.7816 6.16482 22.5973 6.11217 22.4092 6.1116H15.279V1.0186C15.279 0.74845 15.1717 0.489366 14.9807 0.298341C14.7896 0.107317 14.5305 0 14.2604 0C13.9903 0 13.7312 0.107317 13.5401 0.298341C13.3491 0.489366 13.2418 0.74845 13.2418 1.0186V6.1116H6.1116C5.9235 6.11217 5.73923 6.16482 5.57921 6.2637C5.4192 6.36259 5.28969 6.50385 5.20505 6.67183L3.44287 10.186H1.0186C0.74845 10.186 0.489365 10.2933 0.29834 10.4843C0.107316 10.6754 0 10.9345 0 11.2046V15.279C0 15.5491 0.107316 15.8082 0.29834 15.9993C0.489365 16.1903 0.74845 16.2976 1.0186 16.2976H1.24269L3.0558 23.4278L2.0372 27.2577C1.99905 27.4081 1.99574 27.5651 2.02751 27.7169C2.05929 27.8688 2.12531 28.0113 2.22055 28.1337C2.31961 28.2593 2.44684 28.3598 2.59195 28.427C2.73706 28.4943 2.89596 28.5264 3.0558 28.5208H5.093V31.5766C5.093 31.8467 5.20032 32.1058 5.39134 32.2969C5.58236 32.4879 5.84145 32.5952 6.1116 32.5952H7.1302V49.9114C7.1302 50.1815 7.23752 50.4406 7.42854 50.6317C7.61956 50.8227 7.87865 50.93 8.1488 50.93H20.372C20.6421 50.93 20.9012 50.8227 21.0923 50.6317C21.2833 50.4406 21.3906 50.1815 21.3906 49.9114V32.5952H22.4092C22.6793 32.5952 22.9384 32.4879 23.1295 32.2969C23.3205 32.1058 23.4278 31.8467 23.4278 31.5766V28.5208H25.465C25.6197 28.5216 25.7726 28.4872 25.912 28.4201C26.0514 28.3531 26.1738 28.2551 26.2697 28.1337C26.3649 28.0113 26.431 27.8688 26.4627 27.7169C26.4945 27.5651 26.4912 27.4081 26.453 27.2577L25.465 23.4278L27.2475 16.2976H27.5022C27.7723 16.2976 28.0314 16.1903 28.2225 15.9993C28.4135 15.8082 28.5208 15.5491 28.5208 15.279V11.2046C28.5208 10.9345 28.4135 10.6754 28.2225 10.4843C28.0314 10.2933 27.7723 10.186 27.5022 10.186ZM6.74313 8.1488H21.7777L22.7963 10.186H5.72453L6.74313 8.1488ZM2.0372 12.2232H26.4836V14.2604H2.0372V12.2232ZM15.279 22.4092V16.2976H19.221L18.457 22.4092H15.279ZM10.0638 22.4092L9.29982 16.2976H13.2418V22.4092H10.0638ZM7.25243 16.2976L8.01638 22.4092H4.86891L3.34101 16.2976H7.25243ZM19.3534 48.8928H9.1674V32.5952H19.3534V48.8928ZM21.3906 30.558H7.1302V28.5208H21.3906V30.558ZM22.4092 26.4836H4.35961L4.86891 24.4464H23.6519L24.1612 26.4836H22.4092ZM23.6519 22.4092H20.5044L21.2684 16.2976H25.1798L23.6519 22.4092Z" fill="#939393"/>
<path d="M17.3236 47.8727C17.5937 47.8727 17.8528 47.7654 18.0438 47.5744C18.2348 47.3833 18.3422 47.1243 18.3422 46.8541V34.6309C18.3422 34.3608 18.2348 34.1017 18.0438 33.9106C17.8528 33.7196 17.5937 33.6123 17.3236 33.6123C17.0534 33.6123 16.7943 33.7196 16.6033 33.9106C16.4123 34.1017 16.305 34.3608 16.305 34.6309V46.8541C16.305 47.1243 16.4123 47.3833 16.6033 47.5744C16.7943 47.7654 17.0534 47.8727 17.3236 47.8727ZM11.212 47.8727C11.4821 47.8727 11.7412 47.7654 11.9322 47.5744C12.1232 47.3833 12.2306 47.1243 12.2306 46.8541V39.7239C12.2306 39.4538 12.1232 39.1947 11.9322 39.0036C11.7412 38.8126 11.4821 38.7053 11.212 38.7053C10.9418 38.7053 10.6827 38.8126 10.4917 39.0036C10.3007 39.1947 10.1934 39.4538 10.1934 39.7239V46.8541C10.1934 47.1243 10.3007 47.3833 10.4917 47.5744C10.6827 47.7654 10.9418 47.8727 11.212 47.8727Z" fill="#939393"/>
</svg>
