<svg width="36" height="43" viewBox="0 0 36 43" fill="none" xmlns="http://www.w3.org/2000/svg">
<path d="M20.5338 0C20.3106 0 20.3106 0 20.0874 0C11.3829 0 4.46387 6.91901 4.46387 15.6236V15.8468L0.223194 22.7658C-2.1618e-07 22.989 0 23.2121 0 23.4353C0 23.6585 0 23.6585 0 23.8817L3.34791 32.5863C4.24068 34.3718 6.24942 35.711 8.25817 35.711H11.1597V41.2908C11.1597 41.9604 11.6061 42.4068 12.2757 42.4068C12.9452 42.4068 13.3916 41.9604 13.3916 41.2908V35.711H18.9715C19.1947 35.711 19.1947 35.711 19.4179 35.711L29.4616 32.3631L29.0152 33.2559C29.0152 33.4791 29.0152 33.7023 29.0152 33.9254L31.2471 41.7372C31.4703 42.1836 31.9167 42.63 32.3631 42.63H32.5863C33.2559 42.4068 33.4791 41.7372 33.2559 41.2908L31.0239 33.9254L35.4878 17.4091V17.1859V16.2931C35.711 7.58859 29.2384 0.446387 20.5338 0ZM17.8555 33.4791H8.25817C6.919 33.4791 5.80304 32.8095 5.35665 31.6935L2.67832 24.5513H17.8555V33.4791ZM29.908 29.6848L20.0874 33.0327V24.3281L32.5863 20.0874L29.908 29.6848ZM33.2559 17.1859L18.7483 22.3194H3.12471L6.47262 16.7395C6.69581 16.5163 6.69581 16.2931 6.69581 16.0699V15.8468V15.6236C6.69581 12.0525 8.25817 8.48136 10.7133 6.02623C13.3916 3.5711 16.7395 2.00874 20.5338 2.23194C27.8992 2.67832 33.7023 8.92775 33.4791 16.2931L33.2559 17.1859Z" fill="#939393"/>
</svg>
