<svg width="37" height="33" viewBox="0 0 37 33" fill="none" xmlns="http://www.w3.org/2000/svg">
<path d="M35.5769 26.4H10.2082C9.58205 24.2314 7.58974 22.6286 5.21795 22.6286C2.33385 22.6286 0 24.948 0 27.8143C0 30.6806 2.33385 33 5.21795 33C7.58974 33 9.58205 31.3971 10.2082 29.2286H35.5769C36.3549 29.2286 37 28.5874 37 27.8143C37 27.0411 36.3549 26.4 35.5769 26.4ZM5.21795 30.1714C3.90872 30.1714 2.84615 29.1154 2.84615 27.8143C2.84615 26.5131 3.90872 25.4571 5.21795 25.4571C6.52718 25.4571 7.58974 26.5131 7.58974 27.8143C7.58974 29.1154 6.52718 30.1714 5.21795 30.1714ZM35.5769 15.0857H27.2851C26.659 12.9171 24.6667 11.3143 22.2949 11.3143C19.9231 11.3143 17.9308 12.9171 17.3046 15.0857H1.42308C0.645128 15.0857 0 15.7269 0 16.5C0 17.2731 0.645128 17.9143 1.42308 17.9143H17.3046C17.9308 20.0829 19.9231 21.6857 22.2949 21.6857C24.6667 21.6857 26.659 20.0829 27.2851 17.9143H35.5769C36.3549 17.9143 37 17.2731 37 16.5C37 15.7269 36.3549 15.0857 35.5769 15.0857ZM22.2949 18.8571C20.9856 18.8571 19.9231 17.8011 19.9231 16.5C19.9231 15.1989 20.9856 14.1429 22.2949 14.1429C23.6041 14.1429 24.6667 15.1989 24.6667 16.5C24.6667 17.8011 23.6041 18.8571 22.2949 18.8571ZM1.42308 6.6H5.92C6.54615 8.76857 8.53846 10.3714 10.9103 10.3714C13.2821 10.3714 15.2744 8.76857 15.9005 6.6H35.5769C36.3549 6.6 37 5.95886 37 5.18571C37 4.41257 36.3549 3.77143 35.5769 3.77143H15.9005C15.2744 1.60286 13.2821 0 10.9103 0C8.53846 0 6.54615 1.60286 5.92 3.77143H1.42308C0.645128 3.77143 0 4.41257 0 5.18571C0 5.95886 0.645128 6.6 1.42308 6.6ZM10.9103 2.82857C12.2195 2.82857 13.2821 3.88457 13.2821 5.18571C13.2821 6.48686 12.2195 7.54286 10.9103 7.54286C9.60103 7.54286 8.53846 6.48686 8.53846 5.18571C8.53846 3.88457 9.60103 2.82857 10.9103 2.82857Z" fill="#939393"/>
</svg>
