<svg width="1220" height="138" viewBox="0 0 1220 138" fill="none" xmlns="http://www.w3.org/2000/svg">
<g clip-path="url(#clip0_1_182)">
<path d="M214.545 3.59229H242.764L302.68 108.118L365.305 3.59229H391.205L316.212 131.646H287.219L214.545 3.59229Z" fill="white"/>
<path d="M448.414 3.59229H476.633L536.551 108.118L599.174 3.59229H625.075L550.467 131.646H521.476L448.414 3.59229Z" fill="white"/>
<path d="M681.516 3.59229H652.523L651.749 5.1351L579.85 131.646H608.841L666.827 24.0345L728.677 131.646H756.896L681.516 3.59229Z" fill="white"/>
<path d="M432.18 131.646H405.119V3.59229H432.18V131.646Z" fill="white"/>
<path d="M814.106 12.0778H774.29V3.59229H840.006V89.2187C840.006 97.7043 838.46 105.033 835.754 111.59C834.98 113.518 830.341 120.461 826.089 123.161C819.904 127.018 809.081 131.261 795.164 131.646C785.887 132.032 774.29 131.646 774.29 131.646L771.197 125.089C771.197 125.089 787.819 125.475 798.258 121.618C816.04 115.061 815.266 94.2329 815.266 89.9901L814.106 12.0778Z" fill="white"/>
<path d="M972.983 3.59229V12.0778H888.327V51.0339H970.277V59.5195H888.327V123.546H972.983V132.032H861.266V3.59229H972.983Z" fill="white"/>
<path d="M1105.58 3.59229V12.0778H1061.51V131.646H1034.45V12.0778H989.994V3.59229H1105.58Z" fill="white"/>
<path d="M1163.56 0.891113C1168.97 0.891113 1173.61 0.891113 1177.86 1.27682C1181.73 1.66252 1185.59 2.04823 1189.07 2.81964C1192.55 3.59104 1196.03 3.97676 1199.51 4.74816C1202.99 5.51958 1206.86 6.29098 1211.11 7.4481V16.705C1208.02 15.9336 1204.92 15.1622 1201.83 14.3908C1198.74 13.6194 1195.26 13.2337 1191.78 12.4623C1188.3 12.0766 1184.43 11.6908 1180.57 11.3051C1176.7 10.9194 1172.45 10.9194 1167.81 10.9194C1165.88 10.9194 1163.56 11.3051 1160.85 11.6908C1158.15 12.0766 1155.44 12.848 1153.12 14.0051C1150.8 15.1622 1148.48 16.705 1146.94 18.2478C1145.39 20.1763 1144.23 22.1048 1144.23 24.8048C1144.23 27.1191 1145.78 30.2048 1148.48 33.2904C1151.19 36.7616 1155.83 40.6186 1162.4 45.6329L1184.05 61.8325C1188.69 65.3037 1193.33 68.7751 1197.58 71.8608C1201.83 75.3322 1205.7 78.4178 1209.17 81.889C1212.27 84.9747 1214.97 88.4461 1216.91 91.5317C1218.84 94.6174 1220 97.703 1220 100.789C1220 106.96 1218.45 111.974 1215.36 116.217C1212.27 120.459 1208.02 123.931 1202.99 126.631C1197.96 129.331 1192.17 131.259 1185.98 132.416C1179.79 133.574 1173.22 134.345 1167.04 134.345C1161.63 134.345 1156.21 133.959 1151.58 133.574C1146.94 133.188 1142.3 132.416 1137.66 131.645C1133.02 130.873 1129.16 129.716 1124.9 128.559C1121.04 127.402 1116.79 125.859 1112.92 124.317L1114.47 115.06C1117.56 116.217 1121.04 116.988 1124.13 118.145C1127.61 119.302 1131.09 120.074 1134.18 120.845C1137.66 121.617 1141.14 122.388 1144.62 122.774C1148.1 123.159 1151.96 123.545 1155.44 123.545C1167.43 123.545 1176.7 121.617 1182.5 118.531C1188.69 115.06 1191.78 110.046 1191.78 103.489C1191.78 101.56 1191.01 99.6315 1189.85 97.3172C1188.69 95.3887 1186.75 93.0745 1184.82 90.7602C1182.5 88.4461 1180.18 86.1318 1177.09 83.8175C1174 81.5033 1170.9 79.1892 1167.43 76.4891L1145.78 59.904C1140.37 55.2754 1135.73 51.0327 1131.86 47.5614C1128 44.09 1124.9 41.0044 1122.97 38.6901C1120.65 35.9902 1119.1 33.676 1118.33 31.3617C1117.56 29.0476 1116.79 26.7333 1116.79 24.419C1116.79 19.7906 1117.94 15.9336 1120.65 12.848C1123.36 9.76231 1126.84 7.4481 1131.48 5.51958C1135.73 3.59104 1140.75 2.43394 1146.55 1.66252C1152.35 1.27682 1157.76 0.891113 1163.56 0.891113Z" fill="white"/>
<path d="M176.66 3.59229C167.383 20.1776 156.172 36.7629 146.895 53.3482C146.895 53.3482 141.096 53.3482 137.617 53.3482C132.205 53.3482 127.18 53.3482 121.768 52.9624C114.423 52.5768 89.6832 52.1911 82.3384 51.4197C74.607 50.6481 66.8758 49.4912 59.1444 48.3341C48.7073 46.7911 38.6565 44.4771 28.6058 39.4627C22.8074 36.3771 17.0089 32.5201 11.9835 27.506C8.11787 23.649 5.02535 20.5633 1.93283 13.2349C0.386565 8.99214 0 3.59229 0 3.59229C52.5729 3.59229 122.541 3.59229 175.114 3.59229C175.114 3.59229 175.501 3.59229 176.66 3.59229Z" fill="white"/>
<path d="M139.55 69.5483C126.406 91.9194 97.8007 136.275 97.8007 136.275C97.414 137.047 97.0276 137.432 96.2543 136.661C86.2037 126.247 72.6738 115.833 66.8754 101.562C65.3293 97.3191 64.1696 93.4621 64.1696 88.8337C63.7829 83.048 66.4888 79.191 70.3546 76.4912C74.6066 73.7911 79.6322 72.2484 84.2709 71.4768C92.3887 69.9341 109.011 69.1627 116.356 69.5483C119.835 69.1627 139.55 69.5483 139.55 69.5483Z" fill="white"/>
</g>
<defs>
<clipPath id="clip0_1_182">
<rect width="1220" height="138" fill="white"/>
</clipPath>
</defs>
</svg>
