<svg width="28" height="44" viewBox="0 0 28 44" fill="none" xmlns="http://www.w3.org/2000/svg">
<path d="M13.9993 34.8337C21.087 34.8337 26.8327 29.088 26.8327 22.0003C26.8327 14.9127 21.087 9.16699 13.9993 9.16699C6.91169 9.16699 1.16602 14.9127 1.16602 22.0003C1.16602 29.088 6.91169 34.8337 13.9993 34.8337Z" stroke="#939393" stroke-width="2" stroke-linecap="round" stroke-linejoin="round"/>
<path d="M4.83203 12.8335V5.50016C4.83203 4.5277 5.21834 3.59507 5.90597 2.90744C6.59361 2.2198 7.52624 1.8335 8.4987 1.8335H19.4987C20.4712 1.8335 21.4038 2.2198 22.0914 2.90744C22.7791 3.59507 23.1654 4.5277 23.1654 5.50016V12.8335M23.1654 31.1668V38.5002C23.1654 39.4726 22.7791 40.4053 22.0914 41.0929C21.4038 41.7805 20.4712 42.1668 19.4987 42.1668H8.4987C7.52624 42.1668 6.59361 41.7805 5.90597 41.0929C5.21834 40.4053 4.83203 39.4726 4.83203 38.5002V31.1668M13.9987 14.6668V22.0002H21.332" stroke="#939393" stroke-width="2" stroke-linecap="round" stroke-linejoin="round"/>
</svg>
