<svg width="201" height="241" viewBox="0 0 201 241" fill="none" xmlns="http://www.w3.org/2000/svg">
<g clip-path="url(#clip0_0_519)">
<g clip-path="url(#clip1_0_519)">
<path d="M44.4238 57.1533H47.7559C52.0643 57.1534 55.5897 60.7892 55.5898 65.3154V72.9912C55.5897 77.5174 52.0643 81.1533 47.7559 81.1533H44.4238C40.1154 81.1533 36.59 77.5174 36.5898 72.9912V65.3154L36.5996 64.8945C36.8102 60.5659 40.2497 57.1534 44.4238 57.1533Z" fill="#FEF8EE" stroke="#CB9744"/>
<path d="M30.0898 41.1533C41.964 41.1533 51.5898 50.7792 51.5898 62.6533C51.5898 74.5274 41.964 84.1533 30.0898 84.1533C18.2157 84.1533 8.58985 74.5274 8.58984 62.6533C8.58984 50.7792 18.2157 41.1533 30.0898 41.1533Z" fill="#FEF8EE" stroke="#CB9744"/>
<path d="M-28.4072 96.1533H78.5869C87.9761 96.1534 95.5898 103.787 95.5898 113.205V209.102C95.5898 218.52 87.9761 226.153 78.5869 226.153H-28.4072C-37.7964 226.153 -45.4102 218.52 -45.4102 209.102V113.205L-45.4043 112.765C-45.1716 103.55 -37.6497 96.1534 -28.4072 96.1533Z" fill="#FEF8EE" stroke="#CB9744"/>
<path d="M70.8652 102.293C76.1982 95.4215 86.1639 94.1205 93.1221 99.3916L153.378 145.041C160.332 150.309 161.644 160.146 156.314 167.014C150.982 173.885 141.016 175.186 134.058 169.915L73.8018 124.266C66.8474 118.997 65.5352 109.161 70.8652 102.293Z" fill="#FEF8EE" stroke="#CB9744"/>
<path d="M153.802 83.7041C156.742 75.4438 165.811 71.1358 174.057 74.0801C182.302 77.0247 186.605 86.1077 183.665 94.3682L159.378 162.603C156.438 170.863 147.368 175.171 139.123 172.227C130.878 169.282 126.575 160.199 129.515 151.938L153.802 83.7041Z" fill="#FEF8EE" stroke="#CB9744"/>
<path d="M45.5898 96.1533V106.776C43.4346 105.502 41.2793 104.228 39.124 102.954C36.7173 101.531 34.3101 100.109 31.9033 98.6865L31.6494 98.5361L31.3955 98.6855C28.969 100.108 26.5424 101.53 24.1162 102.953C21.9409 104.229 19.7653 105.504 17.5898 106.779V96.1533H45.5898Z" fill="#FEF8EE" stroke="#CB9744"/>
<path d="M174.984 74.5839L186.818 86.6311C189.223 89.0788 189.188 93.0195 186.74 95.424L180.747 101.311C178.3 103.715 174.359 103.68 171.954 101.233L156.636 85.6387C154.231 83.191 154.266 79.2503 156.714 76.8458L159.16 74.443C163.565 70.1155 170.656 70.1786 174.984 74.5839Z" fill="#FEF8EE" stroke="#CB9744"/>
<path d="M163.788 60.4477L164.134 60.5294C166.334 61.0491 167.696 63.2535 167.177 65.4534L163.813 79.6943C163.293 81.8944 161.089 83.2572 158.889 82.7376L158.543 82.6559C156.343 82.136 154.981 79.9309 155.501 77.7309L158.864 63.49C159.384 61.2903 161.589 59.9283 163.788 60.4477Z" fill="#FEF8EE" stroke="#CB9744"/>
<path d="M180.126 57.8996L180.372 58.0567C181.897 59.0303 182.344 61.0559 181.371 62.5806L171.833 77.5177C170.859 79.0424 168.833 79.4886 167.308 78.515L167.062 78.3579C165.538 77.3842 165.091 75.3592 166.064 73.8345L175.602 58.8974C176.576 57.3729 178.601 56.9261 180.126 57.8996Z" fill="#FEF8EE" stroke="#CB9744"/>
<path d="M185.397 63.5441L185.643 63.7012C187.168 64.6748 187.616 66.7004 186.642 68.2251L177.104 83.1623C176.13 84.687 174.105 85.1332 172.58 84.1596L172.334 84.0024C170.809 83.0288 170.362 81.0037 171.336 79.4791L180.874 64.5419C181.848 63.0174 183.873 62.5706 185.397 63.5441Z" fill="#FEF8EE" stroke="#CB9744"/>
<path d="M190.669 69.1876L190.915 69.3448C192.44 70.3184 192.887 72.344 191.914 73.8687L182.376 88.8058C181.402 90.3305 179.376 90.7767 177.851 89.8031L177.605 89.646C176.081 88.6723 175.634 86.6473 176.607 85.1226L186.145 70.1855C187.119 68.6609 189.144 68.2142 190.669 69.1876Z" fill="#FEF8EE" stroke="#CB9744"/>
<path d="M195.94 74.8312L196.186 74.9883C197.711 75.9619 198.158 77.9875 197.185 79.5122L187.647 94.4494C186.673 95.9741 184.648 96.4203 183.123 95.4467L182.877 95.2895C181.352 94.3159 180.905 92.2909 181.879 90.7662L191.417 75.829C192.391 74.3045 194.416 73.8578 195.94 74.8312Z" fill="#FEF8EE" stroke="#CB9744"/>
<path d="M163.467 82.4238L163.556 82.583L163.633 82.7236L163.467 82.4238ZM30.0156 41.1533C38.3315 41.1533 45.5357 45.9111 49.082 52.8623L17.6924 51.5547L17.2959 51.5381L17.1895 51.9209L11.333 73.1162C3.45357 59.094 13.454 41.1534 30.0156 41.1533Z" fill="#FEF8EE" stroke="#CB9744"/>
<path d="M11.8408 57.1533H15.3389C19.9003 57.1533 23.5897 60.8124 23.5898 65.3154V72.9912C23.5897 77.4943 19.9003 81.1533 15.3389 81.1533H11.8408C7.27934 81.1533 3.59 77.4943 3.58984 72.9912V65.3154L3.60059 64.8965C3.82109 60.5876 7.42166 57.1533 11.8408 57.1533Z" fill="#FEF8EE" stroke="#CB9744"/>
<path d="M-38.5439 102.803C-30.5599 96.7362 -19.6613 98.5327 -13.9297 105.979L36.9932 172.149C42.8586 179.772 41.3964 190.675 33.7236 196.504C25.7396 202.57 14.841 200.774 9.10938 193.327L-41.8135 127.157C-47.6789 119.535 -46.2167 108.632 -38.5439 102.803Z" fill="#FEF8EE" stroke="#CB9744"/>
<path d="M4.95996 179.144C7.00673 169.343 16.4267 163.603 25.6582 165.521L107.672 182.551C117.122 184.513 123.187 193.742 121.22 203.163C119.173 212.964 109.753 218.704 100.521 216.786L18.5078 199.756C9.0573 197.794 2.99309 188.564 4.95996 179.144Z" fill="#FEF8EE" stroke="#CB9744"/>
<path d="M102.928 218.436C100.268 220.604 96.3484 220.204 94.1807 217.544L87.6028 209.473C85.4352 206.813 85.8342 202.893 88.4937 200.726L107.96 184.861C110.62 182.693 114.54 183.093 116.708 185.752L120.145 189.97C124.039 194.747 123.33 201.782 118.57 205.688L102.928 218.436Z" fill="#FEF8EE" stroke="#CB9744"/>
<path d="M134.302 195.341L133.986 196.28C133.243 198.486 130.853 199.673 128.647 198.93L112.929 193.641C110.723 192.898 109.536 190.508 110.279 188.301L110.594 187.363C111.337 185.157 113.727 183.97 115.933 184.713L131.651 190.002C133.857 190.745 135.044 193.135 134.302 195.341Z" fill="#FEF8EE" stroke="#CB9744"/>
<path d="M97.3009 208.476L97.6271 208.289C99.3494 207.302 101.546 207.897 102.534 209.619L112.19 226.46C113.178 228.183 112.582 230.379 110.86 231.367L110.534 231.554C108.811 232.541 106.615 231.946 105.627 230.224L95.9706 213.383C95.0141 211.714 95.5433 209.6 97.1432 208.572L97.3009 208.476Z" fill="#FEF8EE" stroke="#CB9744"/>
<path d="M103.346 202.593L103.672 202.406C105.394 201.419 107.591 202.014 108.579 203.737L118.235 220.577C119.223 222.3 118.627 224.496 116.905 225.484L116.579 225.671C114.856 226.658 112.66 226.063 111.672 224.341L102.016 207.5C101.059 205.831 101.588 203.718 103.188 202.689L103.346 202.593Z" fill="#FEF8EE" stroke="#CB9744"/>
<path d="M109.391 196.712L109.717 196.525C111.439 195.538 113.636 196.134 114.623 197.856L124.28 214.697C125.268 216.419 124.672 218.615 122.95 219.603L122.624 219.79C120.901 220.778 118.705 220.182 117.717 218.46L108.06 201.619C107.073 199.897 107.669 197.7 109.391 196.712Z" fill="#FEF8EE" stroke="#CB9744"/>
<path d="M115.436 190.83L115.762 190.643C117.484 189.655 119.681 190.251 120.668 191.973L130.325 208.814C131.312 210.536 130.717 212.733 128.995 213.72L128.669 213.907C126.946 214.895 124.75 214.299 123.762 212.577L114.105 195.736C113.118 194.014 113.714 191.817 115.436 190.83Z" fill="#FEF8EE" stroke="#CB9744"/>
<path d="M118.89 220.374L118.888 220.372L118.886 220.369C118.887 220.371 118.889 220.372 118.89 220.374Z" fill="#FEF8EE" stroke="#CB9744"/>
<path d="M143.389 147.153H251.622C253.364 147.153 254.734 148.654 254.578 150.398L247.78 226.441C247.643 227.978 246.36 229.153 244.825 229.153H135.558C133.799 229.153 132.425 227.627 132.606 225.868L140.438 149.825C140.595 148.306 141.87 147.153 143.389 147.153Z" fill="#FEF8EE" stroke="#CB9744"/>
<path d="M93.5986 230.153H238.581C239.687 230.153 240.59 231.058 240.59 232.181V234.126C240.59 235.249 239.687 236.153 238.581 236.153H93.5986C92.4925 236.153 91.5898 235.249 91.5898 234.126V232.181C91.5898 231.058 92.4925 230.153 93.5986 230.153Z" fill="#FEF8EE" stroke="#CB9744"/>
<path d="M193.59 177.153C199.665 177.153 204.59 182.078 204.59 188.153C204.59 194.228 199.665 199.153 193.59 199.153C187.515 199.153 182.59 194.228 182.59 188.153C182.59 182.078 187.515 177.153 193.59 177.153Z" fill="#FEF8EE" stroke="#CB9744"/>
<mask id="path-29-inside-1_0_519" fill="white">
<path d="M237.748 229.653H135.766C135.577 229.653 135.424 229.502 135.424 229.314C135.424 229.126 135.577 228.974 135.766 228.974H237.748C237.937 228.974 238.09 229.126 238.09 229.314C238.09 229.502 237.937 229.653 237.748 229.653ZM96.6809 142.911C96.4918 142.911 96.3392 142.759 96.3392 142.571V121.821C96.3392 121.633 96.4918 121.481 96.6809 121.481C96.8699 121.481 97.0225 121.633 97.0225 121.821V142.571C97.0225 142.759 96.8699 142.911 96.6809 142.911ZM96.682 179.646L32.616 166.389L-10.7044 110.2C-10.8182 110.051 -10.7909 109.838 -10.6406 109.724C-10.4914 109.609 -10.2761 109.637 -10.1611 109.787L32.8802 165.749L96.7503 178.972C97.1501 179.054 97.0897 179.645 96.682 179.645V179.646ZM91.0514 214.952L20.4529 200.906C13.8121 199.303 8.10522 195.217 4.47108 189.513L-38.8413 132.401C-38.9552 132.252 -38.9244 132.038 -38.7741 131.925C-38.6249 131.814 -38.4097 131.842 -38.2958 131.992L5.03255 189.126C8.64505 194.797 14.2437 198.708 20.5998 200.242L91.1163 214.279C91.5184 214.358 91.4591 214.952 91.0491 214.952H91.0514Z"/>
</mask>
<path d="M237.748 229.653H135.766C135.577 229.653 135.424 229.502 135.424 229.314C135.424 229.126 135.577 228.974 135.766 228.974H237.748C237.937 228.974 238.09 229.126 238.09 229.314C238.09 229.502 237.937 229.653 237.748 229.653ZM96.6809 142.911C96.4918 142.911 96.3392 142.759 96.3392 142.571V121.821C96.3392 121.633 96.4918 121.481 96.6809 121.481C96.8699 121.481 97.0225 121.633 97.0225 121.821V142.571C97.0225 142.759 96.8699 142.911 96.6809 142.911ZM96.682 179.646L32.616 166.389L-10.7044 110.2C-10.8182 110.051 -10.7909 109.838 -10.6406 109.724C-10.4914 109.609 -10.2761 109.637 -10.1611 109.787L32.8802 165.749L96.7503 178.972C97.1501 179.054 97.0897 179.645 96.682 179.645V179.646ZM91.0514 214.952L20.4529 200.906C13.8121 199.303 8.10522 195.217 4.47108 189.513L-38.8413 132.401C-38.9552 132.252 -38.9244 132.038 -38.7741 131.925C-38.6249 131.814 -38.4097 131.842 -38.2958 131.992L5.03255 189.126C8.64505 194.797 14.2437 198.708 20.5998 200.242L91.1163 214.279C91.5184 214.358 91.4591 214.952 91.0491 214.952H91.0514Z" fill="#FEF8EE"/>
<path d="M96.682 179.646L96.4794 180.625L97.682 180.874V179.646H96.682ZM32.616 166.389L31.824 167L32.0504 167.293L32.4134 167.368L32.616 166.389ZM-10.7044 110.2L-11.4998 110.806L-11.4963 110.811L-10.7044 110.2ZM-10.6406 109.724L-10.0351 110.519L-10.0322 110.517L-10.6406 109.724ZM-10.1611 109.787L-9.36845 109.177L-9.36863 109.177L-10.1611 109.787ZM32.8802 165.749L32.0875 166.359L32.3139 166.653L32.6775 166.728L32.8802 165.749ZM96.7503 178.972L96.5476 179.951L96.5505 179.952L96.7503 178.972ZM96.682 179.645V178.645H95.682V179.645H96.682ZM91.0514 214.952V215.952L91.2465 213.971L91.0514 214.952ZM20.4529 200.906L20.2183 201.878L20.2379 201.882L20.2577 201.886L20.4529 200.906ZM4.47108 189.513L5.31448 188.975L5.29254 188.941L5.26787 188.908L4.47108 189.513ZM-38.8413 132.401L-38.0445 131.797L-38.0459 131.795L-38.8413 132.401ZM-38.7741 131.925L-39.3709 131.123L-39.3719 131.124L-38.7741 131.925ZM-38.2958 131.992L-39.0934 132.595L-39.0926 132.597L-38.2958 131.992ZM5.03255 189.126L5.87594 188.589L5.85401 188.555L5.82934 188.522L5.03255 189.126ZM20.5998 200.242L20.3651 201.214L20.3847 201.219L20.4045 201.223L20.5998 200.242ZM91.1163 214.279L90.9211 215.26L90.9229 215.26L91.1163 214.279ZM237.748 229.653V228.653H135.766V229.653V230.653H237.748V229.653ZM135.766 229.653V228.653C136.123 228.653 136.424 228.944 136.424 229.314H135.424H134.424C134.424 230.059 135.03 230.653 135.766 230.653V229.653ZM135.424 229.314H136.424C136.424 229.683 136.123 229.974 135.766 229.974V228.974V227.974C135.03 227.974 134.424 228.568 134.424 229.314H135.424ZM135.766 228.974V229.974H237.748V228.974V227.974H135.766V228.974ZM237.748 228.974V229.974C237.39 229.974 237.09 229.683 237.09 229.314H238.09H239.09C239.09 228.568 238.484 227.974 237.748 227.974V228.974ZM238.09 229.314H237.09C237.09 228.944 237.39 228.653 237.748 228.653V229.653V230.653C238.484 230.653 239.09 230.059 239.09 229.314H238.09ZM96.6809 142.911V141.911C97.0386 141.911 97.3392 142.201 97.3392 142.571H96.3392H95.3392C95.3392 143.317 95.945 143.911 96.6809 143.911V142.911ZM96.3392 142.571H97.3392V121.821H96.3392H95.3392V142.571H96.3392ZM96.3392 121.821H97.3392C97.3392 122.191 97.0386 122.481 96.6809 122.481V121.481V120.481C95.945 120.481 95.3392 121.075 95.3392 121.821H96.3392ZM96.6809 121.481V122.481C96.3231 122.481 96.0225 122.191 96.0225 121.821H97.0225H98.0225C98.0225 121.075 97.4167 120.481 96.6809 120.481V121.481ZM97.0225 121.821H96.0225V142.571H97.0225H98.0225V121.821H97.0225ZM97.0225 142.571H96.0225C96.0225 142.201 96.3231 141.911 96.6809 141.911V142.911V143.911C97.4167 143.911 98.0225 143.317 98.0225 142.571H97.0225ZM96.682 179.646L96.8846 178.667L32.8186 165.41L32.616 166.389L32.4134 167.368L96.4794 180.625L96.682 179.646ZM32.616 166.389L33.4079 165.778L-9.9124 109.59L-10.7044 110.2L-11.4963 110.811L31.824 167L32.616 166.389ZM-10.7044 110.2L-9.90895 109.594C-9.69171 109.879 -9.74071 110.295 -10.0351 110.519L-10.6406 109.724L-11.246 108.928C-11.8411 109.38 -11.9448 110.222 -11.4998 110.806L-10.7044 110.2ZM-10.6406 109.724L-10.0322 110.517C-10.322 110.739 -10.7332 110.683 -10.9536 110.397L-10.1611 109.787L-9.36863 109.177C-9.81911 108.592 -10.6608 108.479 -11.2489 108.93L-10.6406 109.724ZM-10.1611 109.787L-10.9538 110.397L32.0875 166.359L32.8802 165.749L33.6729 165.14L-9.36845 109.177L-10.1611 109.787ZM32.8802 165.749L32.6775 166.728L96.5476 179.951L96.7503 178.972L96.9531 177.993L33.0829 164.77L32.8802 165.749ZM96.7503 178.972L96.5505 179.952C96.3966 179.92 96.2368 179.822 96.1313 179.663C96.0355 179.518 96.0112 179.364 96.0241 179.238C96.037 179.111 96.0917 178.966 96.2142 178.844C96.3491 178.709 96.5248 178.645 96.682 178.645V179.645V180.645C98.2833 180.645 98.5428 178.317 96.9502 177.992L96.7503 178.972ZM96.682 179.645H95.682V179.646H96.682H97.682V179.645H96.682ZM91.0514 214.952L91.2465 213.971L20.648 199.925L20.4529 200.906L20.2577 201.886L90.8563 215.932L91.0514 214.952ZM20.4529 200.906L20.6874 199.934C14.2978 198.392 8.80935 194.461 5.31448 188.975L4.47108 189.513L3.62769 190.05C7.40109 195.973 13.3264 200.215 20.2183 201.878L20.4529 200.906ZM4.47108 189.513L5.26787 188.908L-38.0445 131.797L-38.8413 132.401L-39.6381 133.005L3.6743 190.117L4.47108 189.513ZM-38.8413 132.401L-38.0459 131.795C-37.8207 132.09 -37.8831 132.508 -38.1763 132.727L-38.7741 131.925L-39.3719 131.124C-39.9657 131.567 -40.0896 132.413 -39.6367 133.007L-38.8413 132.401ZM-38.7741 131.925L-38.1773 132.728C-38.4578 132.936 -38.8678 132.894 -39.0934 132.595L-38.2958 131.992L-37.4982 131.389C-37.9515 130.79 -38.792 130.692 -39.3709 131.123L-38.7741 131.925ZM-38.2958 131.992L-39.0926 132.597L4.23576 189.731L5.03255 189.126L5.82934 188.522L-37.499 131.388L-38.2958 131.992ZM5.03255 189.126L4.18916 189.664C7.94287 195.556 13.7616 199.62 20.3651 201.214L20.5998 200.242L20.8344 199.27C14.7259 197.796 9.34723 194.038 5.87594 188.589L5.03255 189.126ZM20.5998 200.242L20.4045 201.223L90.9211 215.26L91.1163 214.279L91.3116 213.298L20.795 199.261L20.5998 200.242ZM91.1163 214.279L90.9229 215.26C90.7693 215.23 90.6083 215.133 90.5014 214.973C90.4044 214.828 90.3795 214.673 90.3922 214.546C90.4049 214.419 90.4598 214.273 90.5824 214.15C90.7175 214.015 90.893 213.952 91.0491 213.952V214.952V215.952C92.6385 215.952 92.928 213.617 91.3098 213.298L91.1163 214.279ZM91.0491 214.952V215.952H91.0514V214.952V213.952H91.0491V214.952Z" fill="#CB9744" mask="url(#path-29-inside-1_0_519)"/>
<path d="M50.0791 75.8574C50.3582 75.8574 50.5896 76.0857 50.5898 76.373V78.7705C50.5896 83.9469 46.4014 88.1532 41.2627 88.1533H32.375C32.0959 88.1533 31.8644 87.9251 31.8643 87.6377C31.8643 87.3502 32.0958 87.1211 32.375 87.1211H41.2627C45.8465 87.121 49.5691 83.3729 49.5693 78.7705V76.373C49.5696 76.0858 49.8002 75.8576 50.0791 75.8574ZM25.2549 39.1533H41.416C45.3369 39.1533 48.5331 42.3619 48.5332 46.3125C48.5332 46.7873 48.1519 47.1667 47.6865 47.167C47.221 47.167 46.8389 46.7874 46.8389 46.3125C46.8388 43.3095 44.4092 40.8623 41.416 40.8623H25.2549C18.6514 40.8624 13.2842 46.2639 13.2842 52.8975V65.3672C13.2841 65.842 12.902 66.2217 12.4365 66.2217C11.9713 66.2214 11.59 65.8418 11.5898 65.3672V52.8975C11.5898 45.3175 17.7237 39.1534 25.2549 39.1533Z" fill="#FEF8EE" stroke="#CB9744"/>
<path d="M32.5898 85.1533C34.3218 85.1533 35.5898 86.3421 35.5898 87.6533C35.5898 88.9645 34.3218 90.1533 32.5898 90.1533C30.8579 90.1533 29.5898 88.9645 29.5898 87.6533C29.5898 86.3421 30.8579 85.1533 32.5898 85.1533Z" fill="#FEF8EE" stroke="#CB9744"/>
</g>
</g>
<rect x="1" y="0.5" width="199" height="240" rx="37.5" stroke="#CB8E44"/>
<defs>
<clipPath id="clip0_0_519">
<rect x="0.5" width="200" height="241" rx="38" fill="white"/>
</clipPath>
<clipPath id="clip1_0_519">
<rect width="264" height="264" fill="white" transform="translate(-19.5 -3)"/>
</clipPath>
</defs>
</svg>
