<svg width="201" height="241" viewBox="0 0 201 241" fill="none" xmlns="http://www.w3.org/2000/svg">
<g clip-path="url(#clip0_0_448)">
<path d="M187.457 39.9463C195.433 39.9463 201.899 46.4119 201.899 54.3877C201.899 62.3636 195.433 68.8301 187.457 68.8301C179.481 68.8299 173.016 62.3635 173.016 54.3877C173.016 46.412 179.481 39.9464 187.457 39.9463Z" fill="#FEF8EE" stroke="#CB8E44"/>
<path d="M142.443 93.5376L143.528 95.4246C147.347 102.065 145.058 110.544 138.418 114.363L98.3093 137.426C91.6684 141.245 83.1891 138.958 79.3704 132.317L78.2853 130.43C74.4666 123.789 76.7546 115.309 83.3955 111.491L123.504 88.4273C130.145 84.6087 138.625 86.8967 142.443 93.5376Z" fill="#FEF8EE" stroke="#CB8E44"/>
<path d="M69.5833 68.5844L71.6277 67.837C78.8226 65.207 86.787 68.9081 89.4171 76.1029L105.302 119.557C107.932 126.752 104.232 134.717 97.0373 137.347L94.9928 138.094C87.798 140.725 79.8326 137.024 77.2025 129.829L61.3177 86.3747C58.6876 79.1798 62.3884 71.2145 69.5833 68.5844Z" fill="#FEF8EE" stroke="#CB8E44"/>
<path d="M139.533 79.21C146.495 75.2069 155.383 77.6058 159.386 84.5674C163.62 91.9299 161.082 101.331 153.72 105.564L137.906 114.656L122.993 88.7207L139.533 79.2109V79.21Z" fill="#FEF8EE" stroke="#CB8E44"/>
<path d="M148.998 77.7246H225.914C228.974 77.7247 231.455 80.2056 231.455 83.2656V160.182C231.455 163.242 228.974 165.723 225.914 165.723H148.998C145.938 165.723 143.457 163.242 143.457 160.182V83.2656C143.457 80.3011 145.785 77.8797 148.713 77.7314L148.998 77.7246Z" fill="#FEF8EE" stroke="#CB8E44"/>
<path d="M204.359 104.119C207.568 96.5061 216.341 92.9359 223.954 96.1445C231.567 99.3531 235.137 108.125 231.929 115.738L214.804 156.368C211.595 163.981 202.823 167.551 195.21 164.343C187.597 161.134 184.027 152.361 187.235 144.748L204.359 104.119Z" fill="#FEF8EE" stroke="#CB8E44"/>
<path d="M150.438 119.043C154.898 112.089 164.152 110.067 171.105 114.527L208.218 138.332C215.171 142.793 217.193 152.045 212.733 158.999C208.273 165.953 199.019 167.974 192.065 163.515L154.953 139.71C147.999 135.249 145.978 125.997 150.438 119.043Z" fill="#FEF8EE" stroke="#CB8E44"/>
<path d="M211.596 86.9512C214.918 79.0685 224.002 75.3714 231.885 78.6934C239.228 81.7883 242.672 90.2512 239.577 97.5938L232.123 115.278L204.554 103.657L211.596 86.9512ZM202.715 77.7246C195.617 88.3464 188.518 98.9681 181.419 109.59C179.57 104.326 177.721 99.0612 175.872 93.7969C173.99 88.4396 172.109 83.0819 170.228 77.7246H202.715Z" fill="#FEF8EE" stroke="#CB8E44"/>
<path d="M195.032 77.7246L189.894 84.7549C188.779 82.5075 187.663 80.26 186.548 78.0127L186.405 77.7246H195.032ZM185.855 77.7246L185.698 77.9375C184.779 79.1842 183.859 80.4311 182.94 81.6777C182.198 82.6843 181.456 83.6907 180.714 84.6973L177.897 77.7246H185.855Z" fill="#FEFEFE" stroke="#CB8E44"/>
<path d="M187.082 81.3379C187.515 82.2096 187.947 83.0815 188.38 83.9531C187.619 85.0432 186.857 86.1335 186.096 87.2236L185.971 87.4033L186.017 87.6162C186.838 91.4182 187.659 95.2205 188.48 99.0234L181.419 109.59C180.315 106.449 179.213 103.308 178.11 100.168C179.901 95.7754 181.693 91.3839 183.484 86.9912L183.569 86.7812L183.468 86.5781C183.076 85.7978 182.685 85.0171 182.294 84.2363C182.964 83.3265 183.636 82.4175 184.307 81.5078C184.876 80.7354 185.445 79.962 186.015 79.1895C186.37 79.9056 186.727 80.6216 187.082 81.3379Z" fill="#FEF8EE" stroke="#CB8E44"/>
<path d="M175.249 122.517L161.874 138.858C160.112 141.01 156.934 141.327 154.782 139.566L147.942 133.967C145.789 132.206 145.472 129.027 147.234 126.875L158.797 112.747C161.559 109.374 166.54 108.876 169.914 111.638L174.541 115.425C176.693 117.187 177.01 120.365 175.249 122.517Z" fill="#FEF8EE" stroke="#CB8E44"/>
<path d="M173.099 120.349L172.411 120.579C170.583 121.19 168.606 120.203 167.995 118.376L163.637 105.335C163.027 103.508 164.013 101.531 165.841 100.92L166.529 100.69C168.356 100.079 170.333 101.066 170.944 102.893L175.302 115.934C175.913 117.761 174.927 119.738 173.099 120.349Z" fill="#FEF8EE" stroke="#CB8E44"/>
<path d="M151.189 99.8359C152.534 98.7956 154.468 99.0421 155.508 100.386L165.24 112.96C166.248 114.263 166.048 116.117 164.812 117.178L164.69 117.277C163.388 118.285 161.533 118.086 160.473 116.851L160.373 116.728L150.64 104.154C149.599 102.81 149.846 100.876 151.189 99.8359Z" fill="#FEF8EE" stroke="#CB8E44"/>
<path d="M146.865 105.397C148.21 104.357 150.143 104.604 151.184 105.947L160.916 118.521C161.924 119.824 161.724 121.679 160.488 122.739L160.366 122.839C159.064 123.847 157.209 123.647 156.148 122.412L156.049 122.289L146.315 109.716C145.275 108.371 145.522 106.438 146.865 105.397Z" fill="#FEF8EE" stroke="#CB8E44"/>
<path d="M142.543 110.96C143.888 109.92 145.821 110.166 146.861 111.51L156.594 124.084C157.601 125.387 157.401 127.242 156.166 128.302L156.044 128.401C154.741 129.409 152.887 129.21 151.826 127.975L151.727 127.852L141.993 115.278C140.953 113.934 141.199 112 142.543 110.96Z" fill="#FEF8EE" stroke="#CB8E44"/>
<path d="M138.219 116.522C139.563 115.482 141.497 115.729 142.537 117.072L152.27 129.646C153.277 130.949 153.077 132.804 151.842 133.864L151.72 133.964C150.417 134.972 148.562 134.772 147.502 133.537L147.402 133.414L137.669 120.841C136.629 119.496 136.875 117.563 138.219 116.522Z" fill="#FEF8EE" stroke="#CB8E44"/>
<path d="M184.017 28.4023C184.446 28.3546 184.763 28.4164 185.012 28.5361C185.264 28.6575 185.484 28.8557 185.691 29.1357C185.901 29.4192 186.088 29.7708 186.277 30.1807C186.371 30.3842 186.463 30.5966 186.56 30.8184C186.655 31.0387 186.755 31.269 186.859 31.499C187.275 32.412 187.804 33.4035 188.701 34.1211C191.253 36.1602 194.214 36.4087 196.853 36.7646C199.529 37.1258 201.894 37.5919 203.677 39.8379C204.55 40.9369 204.835 41.9858 205.395 44.0918C207.357 51.4778 204.77 58.7337 199.145 63.1914L194.492 46.875L194.406 46.5742L194.099 46.5195L177.094 43.4863C177.069 43.442 177.039 43.3903 177.007 43.3311C176.884 43.1032 176.715 42.7687 176.536 42.3496C176.178 41.5093 175.784 40.3389 175.632 39.0088C175.48 37.6803 175.569 36.2024 176.166 34.7324C176.762 33.2664 177.875 31.7781 179.815 30.4404C181.816 29.0618 183.13 28.5012 184.017 28.4023Z" fill="#FEF8EE" stroke="#CB8E44"/>
<path d="M85.7393 55.3604C88.0578 55.3604 89.4881 57.0811 89.4883 58.9395V76.2549C89.4883 78.232 87.8856 79.8348 85.9092 79.835C83.5905 79.835 82.1602 78.1134 82.1602 76.2549V58.9395C82.1603 56.9625 83.763 55.3605 85.7393 55.3604Z" fill="#FEF8EE" stroke="#CB8E44"/>
<path d="M151.732 172.144H223.181C227.022 172.144 229.906 175.637 229.206 179.419C225.554 199.155 208.249 214.104 187.456 214.104C166.663 214.103 149.359 199.155 145.707 179.419C145.007 175.636 147.891 172.144 151.732 172.144Z" fill="#FEF8EE" stroke="#CB8E44"/>
<path d="M229.198 250.637H191.176V194.428L229.198 180.23V250.637Z" fill="#FEF8EE" stroke="#CB8E44"/>
<path d="M183.533 200.176V250.637H145.715V180.336L183.533 200.176Z" fill="#FEF8EE" stroke="#CB8E44"/>
<path d="M57.0742 65.3379C82.4119 65.3379 102.951 85.878 102.951 111.215V168.86C102.951 172.733 99.8114 175.874 95.9385 175.874H19.4355C14.8853 175.874 11.1973 172.185 11.1973 167.636V111.214C11.1973 85.9035 31.6948 65.3807 56.9951 65.3379H57.0742ZM57.0742 83.5557C47.088 83.5557 38.9922 91.6514 38.9922 101.638C38.9923 111.624 47.088 119.72 57.0742 119.72C67.0604 119.72 75.1561 111.624 75.1562 101.638C75.1562 91.6514 67.0605 83.5557 57.0742 83.5557Z" fill="#FEF8EE" stroke="#CB8E44"/>
<path d="M56.958 119.72H57.1904C57.5715 119.72 57.8809 120.029 57.8809 120.41V175.185C57.8806 175.565 57.5714 175.874 57.1904 175.874H56.958C56.577 175.874 56.2678 175.566 56.2676 175.185V120.41C56.2676 120.029 56.5768 119.72 56.958 119.72Z" fill="#FEF8EE" stroke="#CB8E44"/>
<path d="M71.2686 133.872V140.493H42.875V133.872H71.2686Z" fill="#FEF8EE" stroke="#CB8E44"/>
<path d="M71.2686 155.21V161.831H42.875V155.21H71.2686Z" fill="#FEF8EE" stroke="#CB8E44"/>
<path d="M58.4082 60.2041C59.873 59.8855 61.3198 60.8149 61.6387 62.2803L63.8486 72.4316C64.1675 73.8966 63.2388 75.3431 61.7734 75.6621C60.3085 75.981 58.862 75.0523 58.543 73.5869L56.332 63.4346C56.0134 61.9697 56.9428 60.523 58.4082 60.2041Z" fill="#FEF8EE" stroke="#CB8E44"/>
<path d="M64.6738 60.1475C66.1395 59.8288 67.5854 60.7582 67.9043 62.2236L70.1143 72.375C70.4331 73.8399 69.5045 75.2865 68.0391 75.6055C66.5741 75.9244 65.1276 74.9957 64.8086 73.5303L62.5977 63.3779C62.279 61.9131 63.2084 60.4663 64.6738 60.1475Z" fill="#FEF8EE" stroke="#CB8E44"/>
<path d="M70.9375 60.0908C72.4031 59.7722 73.8491 60.7016 74.168 62.167L76.3779 72.3184C76.6968 73.7833 75.7681 75.2298 74.3027 75.5488C72.8378 75.8677 71.3913 74.939 71.0723 73.4736L68.8613 63.3213C68.5427 61.8564 69.4721 60.4097 70.9375 60.0908Z" fill="#FEF8EE" stroke="#CB8E44"/>
<path d="M77.2012 60.0342C78.6668 59.7155 80.1128 60.6449 80.4316 62.1104L82.6416 72.2617C82.9605 73.7266 82.0318 75.1732 80.5664 75.4922C79.1015 75.8111 77.6549 74.8824 77.3359 73.417L75.125 63.2646C74.8064 61.7998 75.7358 60.353 77.2012 60.0342Z" fill="#FEF8EE" stroke="#CB8E44"/>
<path d="M64.1534 73.123C64.0355 73.123 63.9318 73.04 63.9094 72.9205L61.8833 62.2193C61.8576 62.084 61.9464 61.9537 62.0817 61.9288C62.217 61.9047 62.3473 61.9919 62.3722 62.1272L64.3982 72.8284C64.4273 72.9819 64.3094 73.1238 64.1534 73.1238V73.123ZM70.5353 73.1969C70.4174 73.1969 70.3137 73.1139 70.2912 72.9944L68.2652 62.2932C68.2395 62.1579 68.3283 62.0276 68.4636 62.0027C68.5997 61.9778 68.7292 62.0657 68.7541 62.201L70.7801 72.9022C70.8092 73.0558 70.6913 73.1977 70.5353 73.1977V73.1969ZM76.918 73.2716C76.8001 73.2716 76.6964 73.1886 76.6739 73.0691L74.6479 62.3679C74.6222 62.2326 74.711 62.1023 74.8463 62.0774C74.9816 62.0525 75.1119 62.1404 75.1368 62.2757L77.1628 72.9769C77.1919 73.1305 77.074 73.2724 76.918 73.2724V73.2716Z" fill="#CB8E44"/>
</g>
<rect x="1" y="0.5" width="199" height="240" rx="37.5" stroke="#CB8E44"/>
<defs>
<clipPath id="clip0_0_448">
<rect x="0.5" width="200" height="241" rx="38" fill="white"/>
</clipPath>
</defs>
</svg>
