<svg width="201" height="241" viewBox="0 0 201 241" fill="none" xmlns="http://www.w3.org/2000/svg">
<g clip-path="url(#clip0_0_482)">
<path d="M100.234 43.8242C110.477 43.8243 118.781 52.128 118.781 62.3711C118.781 72.6141 110.477 80.9179 100.234 80.918C89.9913 80.918 81.6876 72.6141 81.6875 62.3711C81.6875 52.128 89.9913 43.8242 100.234 43.8242Z" fill="#FEF8EE" stroke="#CB8E44"/>
<path d="M99.0615 190.569C123.125 190.57 142.66 209.942 142.928 233.941H55.1953C55.4634 209.941 74.998 190.569 99.0615 190.569ZM61.5117 88.8711H136.612C144.681 88.8711 150.854 96.0627 149.629 104.038L139.074 172.771C138.088 179.196 132.558 183.94 126.058 183.94H72.0664C65.5656 183.94 60.0369 179.197 59.0498 172.771L48.4951 104.038C47.2703 96.0627 53.4427 88.8711 61.5117 88.8711Z" fill="#FEF8EE" stroke="#CB8E44"/>
<path d="M63.9943 90.5707L65.1943 91.2636C71.7666 95.0584 74.0181 103.463 70.2235 110.035L40.3841 161.719C36.5895 168.291 28.1853 170.543 21.6128 166.749L20.4127 166.056C13.8401 162.261 11.5881 153.857 15.3827 147.284L45.2221 95.6007C48.9574 89.1309 57.1593 86.8477 63.684 90.3972L63.9943 90.5707Z" fill="#FEF8EE" stroke="#CB8E44"/>
<path d="M131.594 90.9109L132.819 90.2629C139.528 86.7143 147.843 89.276 151.392 95.9844L179.299 148.736C182.848 155.444 180.287 163.76 173.579 167.309L172.354 167.957C165.645 171.506 157.329 168.944 153.78 162.236L125.873 109.484C122.324 102.776 124.886 94.4599 131.594 90.9109Z" fill="#FEF8EE" stroke="#CB8E44"/>
<path d="M92.1947 168.363L91.9078 169.719C90.3361 177.144 83.0429 181.888 75.6182 180.317L23.846 169.36C16.4215 167.788 11.6767 160.496 13.2478 153.071L13.5348 151.715C15.1062 144.291 22.3989 139.545 29.8236 141.116L81.5957 152.073C88.9045 153.62 93.6167 160.711 92.2635 168.014L92.1947 168.363Z" fill="#FEF8EE" stroke="#CB8E44"/>
<path d="M202.588 99.839L203.738 100.612C210.036 104.846 211.709 113.385 207.475 119.683L177.952 163.601C173.718 169.899 165.18 171.573 158.882 167.339L157.732 166.566C151.434 162.332 149.76 153.794 153.993 147.495L183.516 103.577C187.75 97.2787 196.289 95.605 202.588 99.839Z" fill="#FEF8EE" stroke="#CB8E44"/>
<path d="M154.038 252.375H55.1895V234.825L137.208 212.851L154.038 252.375Z" fill="#FEF8EE" stroke="#CB8E44"/>
<path d="M116.389 88.8711C113.584 95.4813 110.78 102.092 107.976 108.702C105.227 115.181 102.477 121.66 99.7285 128.14C96.996 121.661 94.2646 115.182 91.5322 108.703C88.7442 102.092 85.9561 95.4817 83.168 88.8711H116.389Z" fill="#FEF8EE" stroke="#CB8E44"/>
<path d="M107.486 88.8711C106.198 92.0173 104.909 95.1635 103.62 98.3096C102.391 101.309 101.162 104.308 99.9336 107.308C97.4154 101.162 94.8974 95.0169 92.3799 88.8711H107.486Z" fill="#FEF8EE" stroke="#CB8E44"/>
<path d="M91.2979 88.8711L99.2773 108.348L83.9795 114.392L88.3672 88.8711H91.2979Z" fill="#FEF8EE" stroke="#CB8E44"/>
<path d="M112.538 88.8711C113.346 97.6273 114.151 106.384 114.958 115.141C112.621 114.042 110.284 112.943 107.947 111.844C105.49 110.688 103.032 109.533 100.574 108.377L108.565 88.8711H112.538Z" fill="#FEF8EE" stroke="#CB8E44"/>
<path d="M112.486 88.8711C111.14 95.4472 105.095 99.8114 99.0674 99.1152C93.9551 98.5248 89.5793 94.3783 88.5361 88.8711H112.486Z" fill="#FEF8EE" stroke="#CB8E44"/>
<path d="M69.2969 81.5693C70.0613 81.4199 71.1163 81.3788 72.3516 81.4512C74.8169 81.5957 77.8999 82.1865 80.6035 83.1641C85.2297 84.837 88.5187 87.5609 90.6025 89.6846C87.6571 90.106 83.3901 90.2715 78.6982 88.79C75.9569 87.9245 73.1488 86.5222 71.1025 85.1396C70.0773 84.4469 69.2644 83.7734 68.748 83.1904C68.4892 82.8982 68.3217 82.6476 68.2334 82.4453C68.1665 82.2921 68.1557 82.1945 68.1611 82.1367L68.1709 82.0918C68.1858 82.0477 68.2407 81.9566 68.4355 81.8486C68.6286 81.7417 68.9139 81.6442 69.2969 81.5693Z" fill="#FEF8EE" stroke="#CB8E44"/>
<path d="M75.0078 71.21C75.2286 71.2129 75.5247 71.2705 75.8945 71.3955C76.6323 71.645 77.5691 72.1319 78.6055 72.8076C80.6742 74.1564 83.0575 76.1996 84.9199 78.3896C88.107 82.1379 89.6117 86.1351 90.3672 89.0127C87.6008 87.9174 83.814 85.9429 80.4746 82.3291C78.5237 80.2172 76.781 77.6063 75.6904 75.3906C75.1441 74.2807 74.7723 73.2926 74.6133 72.5303C74.5336 72.1482 74.5125 71.8474 74.5361 71.6279C74.5599 71.4073 74.6223 71.3212 74.6572 71.29C74.6921 71.2591 74.7852 71.2071 75.0078 71.21Z" fill="#FEF8EE" stroke="#CB8E44"/>
<path d="M100.232 43.8242C109.131 43.8243 116.56 50.0939 118.357 58.4561C114.416 57.9967 111.25 56.1093 109.027 54.2715C107.856 53.3034 106.954 52.3546 106.345 51.6494C106.041 51.2972 105.811 51.0061 105.657 50.8047C105.581 50.704 105.523 50.6255 105.485 50.5732C105.467 50.5471 105.452 50.5274 105.443 50.5146C105.439 50.5086 105.437 50.5038 105.435 50.501L105.432 50.498L104.927 49.7578L104.562 50.5771C100.968 58.6588 96.5494 63.1145 92.4805 65.5469C88.6067 67.8626 85.0149 68.3633 82.6836 68.3779C78.5776 56.4137 87.4739 43.8246 100.232 43.8242Z" fill="#FEF8EE" stroke="#CB8E44"/>
<path d="M112.332 34.75L117.006 53.9316H83.6631L88.3379 34.75H112.332Z" fill="#FEF8EE" stroke="#CB8E44"/>
<mask id="path-19-inside-1_0_482" fill="white">
<path d="M117.643 54.6664L87.8135 34.4439C87.7062 34.3711 87.6788 34.2246 87.7517 34.1173C87.8253 34.0099 87.9726 33.9825 88.0783 34.0554L117.775 54.238C117.966 54.3672 117.873 54.6672 117.643 54.6672V54.6664Z"/>
</mask>
<path d="M117.643 54.6664L87.8135 34.4439C87.7062 34.3711 87.6788 34.2246 87.7517 34.1173C87.8253 34.0099 87.9726 33.9825 88.0783 34.0554L117.775 54.238C117.966 54.3672 117.873 54.6672 117.643 54.6672V54.6664Z" fill="#FEF8EE"/>
<path d="M117.643 54.6664H118.643V54.1362L118.204 53.8387L117.643 54.6664ZM87.8135 34.4439L87.2519 35.2713L87.2524 35.2716L87.8135 34.4439ZM87.7517 34.1173L86.9271 33.5515L86.9243 33.5556L87.7517 34.1173ZM88.0783 34.0554L87.511 34.8789L87.5162 34.8825L88.0783 34.0554ZM117.775 54.238L117.213 55.065L117.214 55.0653L117.775 54.238ZM117.643 54.6672H116.643V55.6672H117.643V54.6672ZM117.643 54.6664L118.204 53.8387L88.3747 33.6162L87.8135 34.4439L87.2524 35.2716L117.082 55.4942L117.643 54.6664ZM87.8135 34.4439L88.3752 33.6165C88.7287 33.8565 88.8137 34.3332 88.579 34.6789L87.7517 34.1173L86.9243 33.5556C86.5439 34.116 86.6837 34.8856 87.2519 35.2713L87.8135 34.4439ZM87.7517 34.1173L88.5762 34.683C88.3404 35.0268 87.8656 35.1231 87.511 34.8789L88.0783 34.0554L88.6456 33.2319C88.0796 32.8419 87.3102 32.9931 86.9271 33.5515L87.7517 34.1173ZM88.0783 34.0554L87.5162 34.8825L117.213 55.065L117.775 54.238L118.337 53.4109L88.6404 33.2283L88.0783 34.0554ZM117.775 54.238L117.214 55.0653C116.586 54.6392 116.892 53.6672 117.643 53.6672V54.6672V55.6672C118.855 55.6672 119.345 54.0953 118.337 53.4107L117.775 54.238ZM117.643 54.6672H118.643V54.6664H117.643H116.643V54.6672H117.643Z" fill="#CB8E44" mask="url(#path-19-inside-1_0_482)"/>
<mask id="path-21-inside-2_0_482" fill="white">
<path d="M100.518 42.6808C100.287 42.6808 100.195 42.3792 100.387 42.2507L112.596 34.0547C112.702 33.9826 112.849 34.0101 112.922 34.1189C112.995 34.227 112.966 34.3727 112.858 34.4448C100.541 42.7137 100.631 42.6808 100.518 42.6808Z"/>
</mask>
<path d="M100.518 42.6808C100.287 42.6808 100.195 42.3792 100.387 42.2507L112.596 34.0547C112.702 33.9826 112.849 34.0101 112.922 34.1189C112.995 34.227 112.966 34.3727 112.858 34.4448C100.541 42.7137 100.631 42.6808 100.518 42.6808Z" fill="#FEF8EE"/>
<path d="M100.387 42.2507L100.943 43.0817L100.944 43.081L100.387 42.2507ZM112.596 34.0547L113.154 34.885L113.159 34.8811L112.596 34.0547ZM112.922 34.1189L112.091 34.675L112.093 34.6778L112.922 34.1189ZM112.858 34.4448L112.303 33.6127L112.3 33.6145L112.858 34.4448ZM100.518 42.6808V41.6808C101.274 41.6808 101.574 42.6597 100.943 43.0817L100.387 42.2507L99.8308 41.4197C98.8165 42.0987 99.2995 43.6808 100.518 43.6808V42.6808ZM100.387 42.2507L100.944 43.081L113.153 34.885L112.596 34.0547L112.039 33.2244L99.8297 41.4205L100.387 42.2507ZM112.596 34.0547L113.159 34.8811C112.806 35.1218 112.327 35.0281 112.091 34.675L112.922 34.1189L113.753 33.5629C113.371 32.992 112.598 32.8435 112.033 33.2283L112.596 34.0547ZM112.922 34.1189L112.093 34.6778C111.856 34.3259 111.95 33.8479 112.303 33.6128L112.858 34.4448L113.412 35.2769C113.981 34.8976 114.134 34.1282 113.751 33.5601L112.922 34.1189ZM112.858 34.4448L112.3 33.6145C106.14 37.7504 103.086 39.8076 101.555 40.8327C100.785 41.3482 100.414 41.5938 100.228 41.711C100.124 41.7763 100.119 41.7757 100.149 41.7613C100.172 41.7508 100.239 41.7202 100.336 41.7001C100.443 41.6778 100.537 41.6808 100.518 41.6808V42.6808V43.6808C100.513 43.6808 100.619 43.684 100.743 43.6582C100.857 43.6345 100.947 43.5965 101.001 43.5708C101.097 43.5259 101.199 43.4632 101.295 43.4024C101.509 43.2674 101.906 43.0045 102.668 42.4945C104.199 41.4689 107.259 39.408 113.415 35.2751L112.858 34.4448Z" fill="#CB8E44" mask="url(#path-21-inside-2_0_482)"/>
<path d="M195.789 96.4963L210.331 105.407C212.556 106.771 213.256 109.685 211.893 111.91L207.591 118.93C206.227 121.155 203.312 121.855 201.087 120.492L184.244 110.17C182.019 108.807 181.32 105.892 182.684 103.667L185.575 98.9485C187.717 95.4537 192.294 94.3547 195.789 96.4963Z" fill="#FEF8EE" stroke="#CB8E44"/>
<path d="M185.177 88.1806L185.881 88.1718C187.665 88.1493 189.13 89.578 189.153 91.3623L189.315 104.287C189.338 106.071 187.909 107.536 186.125 107.559L185.421 107.568C183.636 107.59 182.171 106.161 182.149 104.377L181.986 91.4524C181.964 89.6681 183.393 88.203 185.177 88.1806Z" fill="#FEF8EE" stroke="#CB8E44"/>
<path d="M198.235 82.6178L198.784 82.8021C200.129 83.2532 200.853 84.7085 200.402 86.0528L195.471 100.747C195.02 102.091 193.564 102.815 192.22 102.364L191.671 102.18C190.327 101.728 189.603 100.273 190.054 98.9288L194.985 84.2351C195.436 82.8909 196.891 82.1668 198.235 82.6178Z" fill="#FEF8EE" stroke="#CB8E44"/>
<path d="M203.782 86.2126L204.331 86.3968C205.675 86.8479 206.399 88.3033 205.948 89.6475L201.018 104.341C200.567 105.686 199.111 106.41 197.767 105.959L197.218 105.774C195.874 105.323 195.15 103.868 195.601 102.524L200.531 87.8298C200.983 86.4856 202.438 85.7615 203.782 86.2126Z" fill="#FEF8EE" stroke="#CB8E44"/>
<path d="M209.331 89.8083L209.88 89.9925C211.224 90.4436 211.948 91.899 211.497 93.2433L206.566 107.937C206.115 109.281 204.66 110.005 203.316 109.554L202.767 109.37C201.422 108.919 200.698 107.464 201.149 106.119L206.08 91.4255C206.531 90.0813 207.987 89.3573 209.331 89.8083Z" fill="#FEF8EE" stroke="#CB8E44"/>
<mask id="path-28-inside-3_0_482" fill="white">
<path d="M196.88 97.3893C196.717 97.3893 196.603 97.2271 196.659 97.0736L200.569 86.3952C200.614 86.273 200.75 86.2119 200.871 86.255C200.993 86.2996 201.056 86.4344 201.011 86.5566L197.101 97.235C197.065 97.3305 196.976 97.3893 196.88 97.3893ZM202.562 100.871C202.399 100.871 202.286 100.709 202.341 100.556L206.251 89.8771C206.295 89.7549 206.432 89.6938 206.552 89.7369C206.675 89.7815 206.737 89.9163 206.693 90.0385L202.783 100.717C202.748 100.812 202.658 100.871 202.562 100.871ZM208.244 104.353C208.081 104.353 207.967 104.191 208.023 104.037L211.933 93.3598C211.978 93.2376 212.114 93.1765 212.235 93.2196C212.357 93.2642 212.42 93.399 212.375 93.5212L208.464 104.199C208.429 104.294 208.34 104.353 208.244 104.353Z"/>
</mask>
<path d="M196.88 97.3893C196.717 97.3893 196.603 97.2271 196.659 97.0736L200.569 86.3952C200.614 86.273 200.75 86.2119 200.871 86.255C200.993 86.2996 201.056 86.4344 201.011 86.5566L197.101 97.235C197.065 97.3305 196.976 97.3893 196.88 97.3893ZM202.562 100.871C202.399 100.871 202.286 100.709 202.341 100.556L206.251 89.8771C206.295 89.7549 206.432 89.6938 206.552 89.7369C206.675 89.7815 206.737 89.9163 206.693 90.0385L202.783 100.717C202.748 100.812 202.658 100.871 202.562 100.871ZM208.244 104.353C208.081 104.353 207.967 104.191 208.023 104.037L211.933 93.3598C211.978 93.2376 212.114 93.1765 212.235 93.2196C212.357 93.2642 212.42 93.399 212.375 93.5212L208.464 104.199C208.429 104.294 208.34 104.353 208.244 104.353Z" fill="#FEF8EE"/>
<path d="M196.659 97.0736L195.72 96.7297L195.719 96.733L196.659 97.0736ZM200.569 86.3952L201.508 86.7391L201.508 86.7384L200.569 86.3952ZM200.871 86.255L201.214 85.3157L201.207 85.3132L200.871 86.255ZM201.011 86.5566L201.95 86.9004L201.95 86.8998L201.011 86.5566ZM197.101 97.235L198.039 97.581L198.04 97.5788L197.101 97.235ZM202.341 100.556L201.402 100.212L201.401 100.215L202.341 100.556ZM206.251 89.8771L207.19 90.2209L207.19 90.2203L206.251 89.8771ZM206.552 89.7369L206.896 88.7976L206.889 88.7952L206.552 89.7369ZM206.693 90.0385L207.632 90.3823L207.632 90.3817L206.693 90.0385ZM202.783 100.717L203.721 101.063L203.722 101.061L202.783 100.717ZM208.023 104.037L207.084 103.694L207.082 103.697L208.023 104.037ZM211.933 93.3598L212.872 93.7037L212.872 93.703L211.933 93.3598ZM212.235 93.2196L212.578 92.2803L212.571 92.2779L212.235 93.2196ZM212.375 93.5212L213.314 93.8651L213.314 93.8644L212.375 93.5212ZM208.464 104.199L209.403 104.545L209.403 104.543L208.464 104.199ZM196.88 97.3893V96.3893C197.412 96.3893 197.779 96.9177 197.599 97.4142L196.659 97.0736L195.719 96.733C195.428 97.5366 196.021 98.3893 196.88 98.3893V97.3893ZM196.659 97.0736L197.598 97.4175L201.508 86.7391L200.569 86.3952L199.63 86.0513L195.72 96.7297L196.659 97.0736ZM200.569 86.3952L201.508 86.7384C201.36 87.146 200.917 87.3335 200.534 87.1967L200.871 86.255L201.207 85.3132C200.583 85.0903 199.868 85.4 199.63 86.052L200.569 86.3952ZM200.871 86.255L200.528 87.1942C200.131 87.0495 199.927 86.6102 200.072 86.2134L201.011 86.5566L201.95 86.8998C202.185 86.2585 201.855 85.5498 201.214 85.3157L200.871 86.255ZM201.011 86.5566L200.072 86.2127L196.162 96.8911L197.101 97.235L198.04 97.5788L201.95 86.9004L201.011 86.5566ZM197.101 97.235L196.162 96.8889C196.276 96.5811 196.568 96.3893 196.88 96.3893V97.3893V98.3893C197.384 98.3893 197.855 98.08 198.039 97.581L197.101 97.235ZM202.562 100.871V99.8712C203.095 99.8712 203.461 100.4 203.281 100.896L202.341 100.556L201.401 100.215C201.11 101.019 201.704 101.871 202.562 101.871V100.871ZM202.341 100.556L203.28 100.899L207.19 90.2209L206.251 89.8771L205.312 89.5333L201.402 100.212L202.341 100.556ZM206.251 89.8771L207.19 90.2203C207.041 90.6279 206.599 90.8154 206.216 90.6786L206.552 89.7369L206.889 88.7952C206.264 88.5722 205.55 88.8819 205.311 89.5339L206.251 89.8771ZM206.552 89.7369L206.209 90.6762C205.813 90.5314 205.608 90.0921 205.753 89.6953L206.693 90.0385L207.632 90.3817C207.866 89.7404 207.536 89.0317 206.896 88.7976L206.552 89.7369ZM206.693 90.0385L205.754 89.6947L201.844 100.373L202.783 100.717L203.722 101.061L207.632 90.3823L206.693 90.0385ZM202.783 100.717L201.845 100.371C201.958 100.063 202.251 99.8712 202.562 99.8712V100.871V101.871C203.066 101.871 203.537 101.562 203.721 101.063L202.783 100.717ZM208.244 104.353V103.353C208.776 103.353 209.143 103.882 208.963 104.378L208.023 104.037L207.082 103.697C206.791 104.5 207.385 105.353 208.244 105.353V104.353ZM208.023 104.037L208.962 104.381L212.872 93.7037L211.933 93.3598L210.994 93.0159L207.084 103.694L208.023 104.037ZM211.933 93.3598L212.872 93.703C212.723 94.1106 212.281 94.2981 211.898 94.1613L212.235 93.2196L212.571 92.2779C211.947 92.0549 211.232 92.3646 210.994 93.0166L211.933 93.3598ZM212.235 93.2196L211.891 94.1589C211.495 94.0141 211.291 93.5748 211.436 93.178L212.375 93.5212L213.314 93.8644C213.548 93.2231 213.218 92.5144 212.578 92.2803L212.235 93.2196ZM212.375 93.5212L211.436 93.1773L207.525 103.855L208.464 104.199L209.403 104.543L213.314 93.8651L212.375 93.5212ZM208.464 104.199L207.526 103.853C207.64 103.545 207.932 103.353 208.244 103.353V104.353V105.353C208.748 105.353 209.219 105.044 209.403 104.545L208.464 104.199Z" fill="#CB8E44" mask="url(#path-28-inside-3_0_482)"/>
<path d="M89.8453 162.956L84.0234 178.986C83.1326 181.439 80.4173 182.708 77.9645 181.817L70.2256 179.007C67.7727 178.116 66.5039 175.4 67.3947 172.947L74.138 154.379C75.0289 151.927 77.7447 150.659 80.1975 151.549L85.3993 153.439C89.2518 154.838 91.2444 159.103 89.8453 162.956Z" fill="#FEF8EE" stroke="#CB8E44"/>
<path d="M95.8663 150.895L96.0158 151.583C96.3947 153.327 95.288 155.048 93.5442 155.427L80.9132 158.172C79.1695 158.551 77.4482 157.444 77.0693 155.7L76.9198 155.012C76.5409 153.269 77.6476 151.547 79.3913 151.168L92.0223 148.424C93.7661 148.045 95.4873 149.151 95.8663 150.895Z" fill="#FEF8EE" stroke="#CB8E44"/>
<path d="M103.938 162.573L103.867 163.148C103.694 164.555 102.413 165.556 101.006 165.383L85.6226 163.491C84.2152 163.318 83.2147 162.037 83.3878 160.63L83.4584 160.055C83.6316 158.648 84.9126 157.647 86.32 157.82L101.703 159.712C103.022 159.874 103.984 161.01 103.956 162.311L103.938 162.573Z" fill="#FEF8EE" stroke="#CB8E44"/>
<path d="M101.526 168.727L101.455 169.301C101.282 170.709 100.001 171.709 98.5937 171.536L83.2105 169.645C81.8031 169.472 80.8026 168.191 80.9756 166.783L81.0463 166.208C81.2194 164.801 82.5005 163.8 83.9078 163.974L99.291 165.865C100.698 166.038 101.699 167.319 101.526 168.727Z" fill="#FEF8EE" stroke="#CB8E44"/>
<path d="M99.1138 174.882L99.0431 175.457C98.87 176.864 97.5889 177.864 96.1816 177.692L80.7984 175.8C79.391 175.627 78.3905 174.346 78.5635 172.938L78.6342 172.364C78.8073 170.956 80.0884 169.956 81.4957 170.129L96.8789 172.02C98.1981 172.183 99.1596 173.319 99.1323 174.619L99.1138 174.882Z" fill="#FEF8EE" stroke="#CB8E44"/>
<path d="M96.7017 181.036L96.631 181.611C96.4579 183.018 95.1768 184.019 93.7695 183.846L78.3863 181.954C76.9789 181.781 75.9784 180.5 76.1514 179.093L76.2221 178.518C76.3952 177.111 77.6763 176.11 79.0836 176.283L94.4668 178.175C95.786 178.337 96.7475 179.473 96.7201 180.774L96.7017 181.036Z" fill="#FEF8EE" stroke="#CB8E44"/>
<path d="M48.8408 112.608L48.8359 112.609M48.8408 112.608L49.0664 112.571M48.8408 112.608L49.0664 112.571M48.8408 112.608L48.8359 112.609M48.8359 112.609L49.0664 112.571M48.8359 112.609L49.0664 112.571" fill="#FEF8EE" stroke="#CB8E44"/>
<path d="M140.942 112.815V117.553H120.104V112.815H140.942Z" fill="#CB8E44" stroke="#CB8E44"/>
</g>
<rect x="1" y="0.5" width="199" height="240" rx="37.5" stroke="#CB8E44"/>
<defs>
<clipPath id="clip0_0_482">
<rect x="0.5" width="200" height="241" rx="38" fill="white"/>
</clipPath>
</defs>
</svg>
