<svg width="201" height="241" viewBox="0 0 201 241" fill="none" xmlns="http://www.w3.org/2000/svg">
<g clip-path="url(#clip0_0_386)">
<path d="M123.924 125.013C126.261 129.956 126.417 135.426 125.24 141.155C124.033 147.033 121.432 153.149 118.396 159.184C115.353 165.235 111.917 171.12 109.008 176.641C106.208 181.953 103.907 186.904 103.055 191.154L102.977 191.563C101.44 200.08 99.1935 213.893 97.3311 225.573C96.3997 231.414 95.5634 236.724 94.9609 240.572C94.6597 242.496 94.4167 244.056 94.249 245.134C94.1652 245.673 94.1007 246.092 94.0566 246.376C94.0561 246.379 94.0552 246.382 94.0547 246.386H21.0225C21.103 246.062 21.2141 245.616 21.3545 245.057C21.6718 243.793 22.1375 241.95 22.7305 239.636C23.9165 235.007 25.6118 228.492 27.6494 220.95C31.7252 205.865 37.1687 186.676 42.6416 170.245C45.8618 160.569 49.09 151.864 52.0518 145.521L58.5127 143.677L123.924 125.013Z" stroke="#CB8E44"/>
<path d="M75.5234 149.227L64.2861 159.271L43.0088 169.146C46.1066 159.911 49.2018 151.624 52.0508 145.521L58.3662 143.719L75.5234 149.227Z" fill="#FEF8EE" stroke="#CB8E44"/>
<path d="M141.18 94.2832C144.199 92.5829 147.01 91.8955 149.479 92.3291C150.648 92.5345 151.7 93.2313 152.649 94.3613C153.601 95.4943 154.429 97.0389 155.144 98.8779C156.573 102.556 157.514 107.315 158.128 112.049C158.742 116.776 159.027 121.45 159.159 124.944C159.225 126.69 159.253 128.14 159.264 129.153C159.269 129.61 159.27 129.978 159.271 130.244H114.33C119.315 118.875 125.537 109.002 131.789 102.16C134.979 98.669 138.163 95.9818 141.18 94.2832Z" fill="#FEF8EE" stroke="#CB8E44"/>
<path d="M139.131 112.94C146.568 108.875 153.389 107.9 158 109.062C161.996 110.072 164.481 112.749 165.972 116.262C167.47 119.793 167.95 124.148 167.908 128.42C167.867 132.684 167.306 136.825 166.755 139.903C166.48 141.441 166.207 142.712 166.003 143.597C165.915 143.979 165.838 144.29 165.781 144.519L117.14 134.553C124.003 123.855 131.844 116.923 139.131 112.94Z" fill="#FEF8EE" stroke="#CB8E44"/>
<path d="M91.0654 98.3613C91.1062 98.3617 91.1673 98.3622 91.248 98.3633C91.4099 98.3654 91.6517 98.3686 91.9668 98.375C92.597 98.3878 93.5239 98.412 94.709 98.4541C104.285 98.7954 130.633 100.376 153.637 107.606C149.311 107.687 144.11 109.079 138.653 112.062C131.301 116.08 123.447 123.005 116.567 133.593L115.905 134.629C112.514 140.012 109.378 146.309 106.672 153.612L45.915 149.742C51.6406 134.903 60.147 122.619 68.6064 113.763C72.8961 109.272 77.1678 105.667 81.0508 103.06C84.92 100.461 88.3728 98.8726 91.0547 98.3604C91.0581 98.3604 91.0617 98.3613 91.0654 98.3613Z" fill="#FEF8EE" stroke="#CB8E44"/>
<path d="M95.9727 83.6104C99.5698 83.4518 104.627 83.3646 110.465 83.6533C121.443 84.1963 135.14 86.0658 147.07 91.248C145.029 91.4269 142.882 92.1818 140.693 93.4141C137.555 95.1811 134.289 97.9478 131.054 101.488C124.583 108.57 118.179 118.809 113.111 130.549C110.498 136.603 108.239 143.061 106.509 149.699H45.8525C50.0533 133.727 57.8688 116.799 66.2783 104.097C70.5387 97.6615 74.9377 92.3318 79.0771 88.7617C83.2425 85.1694 87.034 83.4543 90.1104 83.9941L90.1797 84.0059L90.25 83.998H90.2559C90.2598 83.9976 90.2657 83.9969 90.2734 83.9961C90.2895 83.9944 90.3136 83.9915 90.3457 83.9883C90.4103 83.9818 90.5072 83.9719 90.6348 83.96C90.8899 83.936 91.2687 83.9029 91.7598 83.8643C92.742 83.7869 94.1746 83.6896 95.9727 83.6104Z" fill="#FEF8EE" stroke="#CB8E44"/>
<path d="M165.755 59.999C165.711 60.0404 165.663 60.0848 165.612 60.1328C165.259 60.4674 164.739 60.9639 164.074 61.6133C162.744 62.9124 160.831 64.8242 158.5 67.2744C153.838 72.1744 147.5 79.233 140.791 87.8682C127.475 105.007 112.671 128.397 106.648 153.479L47.3936 132.783C50.8112 116.985 59.2763 94.9474 72.1641 74.043C85.1085 53.0466 102.483 33.2429 123.629 22.0371L165.755 59.999Z" fill="#FEF8EE" stroke="#CB8E44"/>
<path d="M49.3691 134.004L107.01 154.135C113.544 126.308 131.017 100.493 145.345 82.9629" stroke="#CB8E44" stroke-miterlimit="10" stroke-linecap="round" stroke-linejoin="round"/>
<path d="M91.5934 74.4409C95.2844 69.1101 100.096 65.3257 104.87 63.5018C109.646 61.6768 114.332 61.8285 117.863 64.2655C121.393 66.7027 123.191 71.0271 123.168 76.134C123.146 81.2378 121.299 87.0691 117.608 92.3998C113.917 97.7307 109.106 101.516 104.332 103.34C99.5552 105.165 94.8685 105.013 91.3381 102.576C87.8079 100.139 86.0106 95.8149 86.0333 90.7081C86.0559 85.6041 87.9025 79.7719 91.5934 74.4409Z" fill="#FEF8EE" stroke="#CB8E44"/>
<path d="M87.7559 129.575C90.4008 127.974 93.7061 127.925 96.3906 129.456C100.351 131.713 101.811 136.666 99.7627 140.671L99.5537 141.056C96.7385 145.935 93.2844 152.568 90.9961 159.191H65.2188C69.818 142.557 81.2006 133.542 87.7559 129.575Z" fill="#FEF8EE" stroke="#CB8E44"/>
<path d="M2.54012 207.268C2.42348 200.787 5.71455 195.475 9.89071 195.397L13.3922 195.333L13.8176 218.798L10.3161 218.862C6.13765 218.94 2.65676 213.749 2.54012 207.268Z" fill="#CB8E44"/>
<path d="M13.8237 218.8C18.0014 218.725 21.2928 213.41 21.1753 206.929C21.0579 200.449 17.576 195.257 13.3983 195.332C9.22064 195.408 5.92922 200.722 6.04669 207.203C6.16417 213.683 9.64606 218.876 13.8237 218.8Z" fill="#CB8E44"/>
<path d="M13.7903 216.969C17.3163 216.905 20.0943 212.42 19.9952 206.95C19.8961 201.481 16.9573 197.099 13.4313 197.163C9.90527 197.227 7.12725 201.712 7.22639 207.181C7.32553 212.65 10.2643 217.032 13.7903 216.969Z" stroke="#FEF8EE" stroke-width="2" stroke-miterlimit="10"/>
<path d="M116.954 187.574C109.407 190.376 102.056 189.337 100.538 185.253L99.2637 181.832L126.596 171.69L127.87 175.111C129.389 179.192 124.501 184.772 116.954 187.574Z" fill="#CB8E44"/>
<path d="M115.687 184.136C123.234 181.335 128.121 175.755 126.602 171.673C125.083 167.59 117.732 166.552 110.184 169.353C102.636 172.154 97.7493 177.734 99.2688 181.816C100.788 185.899 108.139 186.937 115.687 184.136Z" fill="#CB8E44"/>
<path d="M115.259 182.982C121.629 180.618 125.753 175.909 124.471 172.463C123.189 169.018 116.985 168.142 110.616 170.506C104.246 172.87 100.122 177.579 101.404 181.024C102.686 184.469 108.889 185.346 115.259 182.982Z" stroke="#FEF8EE" stroke-width="2" stroke-miterlimit="10"/>
<path d="M52.3683 72.4981C58.5616 77.3533 61.3107 84.1725 58.5113 87.7351L56.1648 90.7199L33.7402 73.1421L36.0868 70.1573C38.8861 66.5947 46.175 67.6429 52.3683 72.4981Z" fill="#CB8E44"/>
<path d="M56.1681 90.7177C58.9674 87.1572 56.2174 80.3361 50.0258 75.4824C43.8342 70.6287 36.5457 69.5804 33.7463 73.141C30.947 76.7015 33.697 83.5226 39.8886 88.3763C46.0802 93.23 53.3688 94.2783 56.1681 90.7177Z" fill="#CB8E44"/>
<path d="M54.4212 89.3455C56.7837 86.3405 54.4625 80.5835 49.2366 76.4868C44.0107 72.3902 37.859 71.5052 35.4965 74.5102C33.134 77.5151 35.4552 83.2722 40.6811 87.3688C45.907 91.4655 52.0586 92.3505 54.4212 89.3455Z" stroke="#FEF8EE" stroke-width="2" stroke-miterlimit="10"/>
<path d="M197.718 112.046C190.744 115.65 183.321 115.154 181.137 110.939L179.305 107.403L204.554 94.3496L206.386 97.8848C208.57 102.103 204.689 108.442 197.718 112.046Z" fill="#CB8E44"/>
<path d="M195.875 108.498C202.847 104.893 206.727 98.5531 204.541 94.3374C202.354 90.1218 194.93 89.6268 187.958 93.232C180.986 96.8372 177.106 103.177 179.293 107.393C181.479 111.609 188.903 112.104 195.875 108.498Z" fill="#CB8E44"/>
<path d="M195.258 107.307C201.142 104.265 204.417 98.9135 202.571 95.3552C200.726 91.797 194.46 91.379 188.576 94.4216C182.692 97.4642 179.418 102.815 181.263 106.373C183.108 109.932 189.374 110.35 195.258 107.307Z" stroke="#FEF8EE" stroke-width="2" stroke-miterlimit="10"/>
<path d="M100.625 200.467H153.749C154.646 200.467 155.335 201.254 155.218 202.139V202.14L149.541 245.099V245.1C149.445 245.835 148.817 246.386 148.072 246.386H94.9492C94.0539 246.386 93.3619 245.598 93.4795 244.714L93.4805 244.713L99.1562 201.754V201.753C99.2518 201.017 99.8801 200.467 100.625 200.467Z" fill="#FEF8EE" stroke="#CB8E44"/>
<path d="M94.9434 200.467H148.067C148.965 200.467 149.654 201.254 149.536 202.139V202.14L143.859 245.099V245.1C143.764 245.835 143.136 246.386 142.391 246.386H89.2676C88.3723 246.386 87.6803 245.598 87.7979 244.714L87.7988 244.713L93.4746 201.754V201.753C93.5702 201.017 94.1985 200.467 94.9434 200.467Z" fill="#FEF8EE" stroke="#CB8E44"/>
<path d="M104.416 218.184L103.854 222.445C103.785 222.968 103.339 223.359 102.811 223.359H96.2926C95.6568 223.359 95.1651 222.799 95.2497 222.171L95.8123 217.908C95.8809 217.385 96.3269 216.994 96.8552 216.994H103.373C104.007 216.996 104.499 217.554 104.416 218.184Z" fill="#CB8E44"/>
<path d="M95.5645 217.492H102.08C102.374 217.493 102.607 217.718 102.632 217.996L102.63 218.117L102.067 222.378L102.066 222.379C102.03 222.652 101.798 222.857 101.52 222.857H95.002C94.6665 222.857 94.4102 222.562 94.4541 222.236V222.235L95.0166 217.972V217.971C95.0525 217.697 95.2864 217.492 95.5645 217.492ZM99.7109 202.724H143.373C143.844 202.724 144.207 203.139 144.146 203.604L143.184 210.891C143.132 211.279 142.802 211.568 142.41 211.568H98.748C98.306 211.568 97.9587 211.204 97.9678 210.774L97.9746 210.688L98.9365 203.4C98.9887 203.012 99.3195 202.724 99.7109 202.724Z" fill="#FEF8EE" stroke="#CB8E44"/>
<path d="M99.1002 210.623C98.9995 211.388 99.5965 212.069 100.37 212.069H98.7457C97.9726 212.069 97.3735 211.388 97.4764 210.623L98.4392 203.336C98.5238 202.701 99.0682 202.224 99.7085 202.224H101.332C100.69 202.224 100.145 202.699 100.063 203.336L99.1002 210.623Z" fill="#CB8E44"/>
<path d="M117.635 218.184L117.072 222.445C117.004 222.968 116.558 223.359 116.029 223.359H109.511C108.876 223.359 108.384 222.799 108.468 222.171L109.031 217.908C109.1 217.385 109.546 216.994 110.074 216.994H116.592C117.228 216.996 117.717 217.554 117.635 218.184Z" fill="#CB8E44"/>
<path d="M116.352 218.184L115.789 222.445C115.721 222.968 115.275 223.359 114.746 223.359H108.228C107.592 223.359 107.101 222.799 107.185 222.171L107.748 217.908C107.817 217.385 108.262 216.994 108.791 216.994H115.309C115.945 216.996 116.436 217.554 116.352 218.184Z" fill="#FEF8EE"/>
<path d="M130.862 218.184L130.299 222.445C130.23 222.968 129.784 223.359 129.256 223.359H122.738C122.102 223.359 121.61 222.799 121.695 222.171L122.258 217.908C122.326 217.385 122.772 216.994 123.301 216.994H129.819C130.454 216.996 130.946 217.554 130.862 218.184Z" fill="#CB8E44"/>
<path d="M129.574 218.184L129.012 222.445C128.943 222.968 128.497 223.359 127.969 223.359H121.451C120.815 223.359 120.323 222.799 120.408 222.171L120.971 217.908C121.039 217.385 121.485 216.994 122.013 216.994H128.532C129.165 216.996 129.657 217.554 129.574 218.184Z" fill="#FEF8EE"/>
<path d="M144.086 218.184L143.524 222.445C143.455 222.968 143.009 223.359 142.481 223.359H135.963C135.327 223.359 134.835 222.799 134.92 222.171L135.482 217.908C135.551 217.385 135.997 216.994 136.525 216.994H143.043C143.679 216.996 144.168 217.554 144.086 218.184Z" fill="#CB8E44"/>
<path d="M142.801 218.184L142.238 222.445C142.17 222.968 141.724 223.359 141.196 223.359H134.677C134.042 223.359 133.55 222.799 133.634 222.171L134.197 217.908C134.266 217.385 134.712 216.994 135.24 216.994H141.758C142.394 216.996 142.883 217.554 142.801 218.184Z" fill="#FEF8EE"/>
<path d="M103.039 227.893L102.477 232.154C102.408 232.677 101.962 233.068 101.434 233.068H94.9157C94.2799 233.068 93.7882 232.508 93.8728 231.88L94.4354 227.617C94.504 227.094 94.95 226.703 95.4783 226.703H101.996C102.632 226.703 103.124 227.263 103.039 227.893Z" fill="#CB8E44"/>
<path d="M101.75 227.893L101.188 232.154C101.119 232.677 100.673 233.068 100.145 233.068H93.6266C92.9908 233.068 92.4991 232.508 92.5837 231.88L93.1463 227.617C93.2149 227.094 93.6609 226.703 94.1892 226.703H100.707C101.343 226.703 101.835 227.263 101.75 227.893Z" fill="#FEF8EE"/>
<path d="M116.262 227.893L115.699 232.154C115.631 232.677 115.185 233.068 114.656 233.068H108.138C107.503 233.068 107.011 232.508 107.095 231.88L107.658 227.617C107.727 227.094 108.173 226.703 108.701 226.703H115.219C115.853 226.703 116.344 227.263 116.262 227.893Z" fill="#CB8E44"/>
<path d="M114.979 227.893L114.416 232.154C114.348 232.677 113.902 233.068 113.373 233.068H106.855C106.219 233.068 105.728 232.508 105.812 231.88L106.375 227.617C106.443 227.094 106.889 226.703 107.418 226.703H113.936C114.572 226.703 115.061 227.263 114.979 227.893Z" fill="#FEF8EE"/>
<path d="M129.488 227.893L128.926 232.154C128.857 232.677 128.411 233.068 127.883 233.068H121.365C120.729 233.068 120.237 232.508 120.322 231.88L120.885 227.617C120.953 227.094 121.399 226.703 121.928 226.703H128.446C129.081 226.703 129.571 227.263 129.488 227.893Z" fill="#CB8E44"/>
<path d="M128.197 227.893L127.635 232.154C127.566 232.677 127.12 233.068 126.592 233.068H120.074C119.438 233.068 118.946 232.508 119.031 231.88L119.594 227.617C119.662 227.094 120.108 226.703 120.636 226.703H127.155C127.79 226.703 128.282 227.263 128.197 227.893Z" fill="#FEF8EE"/>
<path d="M142.711 227.893L142.149 232.154C142.08 232.677 141.634 233.068 141.106 233.068H134.588C133.952 233.068 133.46 232.508 133.545 231.88L134.107 227.617C134.176 227.094 134.622 226.703 135.15 226.703H141.668C142.304 226.703 142.796 227.263 142.711 227.893Z" fill="#CB8E44"/>
<path d="M141.426 227.893L140.863 232.154C140.795 232.677 140.349 233.068 139.821 233.068H133.302C132.667 233.068 132.175 232.508 132.259 231.88L132.822 227.617C132.891 227.094 133.337 226.703 133.865 226.703H140.383C141.017 226.703 141.508 227.263 141.426 227.893Z" fill="#FEF8EE"/>
<path d="M101.666 237.6L101.104 241.861C101.035 242.384 100.589 242.775 100.061 242.775H93.5426C92.9068 242.775 92.4151 242.215 92.4997 241.587L93.0623 237.324C93.1309 236.801 93.5769 236.41 94.1052 236.41H100.623C101.259 236.412 101.749 236.97 101.666 237.6Z" fill="#CB8E44"/>
<path d="M100.373 237.6L99.8107 241.861C99.742 242.384 99.2961 242.775 98.7678 242.775H92.2497C91.6139 242.775 91.1221 242.215 91.2068 241.587L91.7694 237.324C91.838 236.801 92.284 236.41 92.8123 236.41H99.3304C99.9662 236.412 100.456 236.97 100.373 237.6Z" fill="#FEF8EE"/>
<path d="M114.885 237.6L114.322 241.861C114.254 242.384 113.808 242.775 113.279 242.775H106.761C106.126 242.775 105.634 242.215 105.718 241.587L106.281 237.324C106.35 236.801 106.796 236.41 107.324 236.41H113.842C114.478 236.412 114.97 236.97 114.885 237.6Z" fill="#CB8E44"/>
<path d="M113.598 237.6L113.035 241.861C112.967 242.384 112.521 242.775 111.992 242.775H105.474C104.838 242.775 104.347 242.215 104.431 241.587L104.994 237.324C105.063 236.801 105.509 236.41 106.037 236.41H112.555C113.191 236.412 113.682 236.97 113.598 237.6Z" fill="#FEF8EE"/>
<path d="M128.113 237.6L127.551 241.861C127.482 242.384 127.036 242.775 126.508 242.775H119.99C119.354 242.775 118.862 242.215 118.947 241.587L119.51 237.324C119.578 236.801 120.024 236.41 120.553 236.41H127.071C127.704 236.412 128.196 236.97 128.113 237.6Z" fill="#CB8E44"/>
<path d="M126.824 237.6L126.262 241.861C126.193 242.384 125.747 242.775 125.219 242.775H118.701C118.065 242.775 117.573 242.215 117.658 241.587L118.221 237.324C118.289 236.801 118.735 236.41 119.263 236.41H125.782C126.417 236.412 126.907 236.97 126.824 237.6Z" fill="#FEF8EE"/>
<path d="M141.334 237.6L140.772 241.861C140.703 242.384 140.257 242.775 139.729 242.775H133.211C132.575 242.775 132.083 242.215 132.168 241.587L132.73 237.324C132.799 236.801 133.245 236.41 133.773 236.41H140.291C140.927 236.412 141.417 236.97 141.334 237.6Z" fill="#CB8E44"/>
<path d="M140.051 237.6L139.488 241.861C139.42 242.384 138.974 242.775 138.446 242.775H131.927C131.292 242.775 130.8 242.215 130.884 241.587L131.447 237.324C131.516 236.801 131.962 236.41 132.49 236.41H139.008C139.644 236.412 140.136 236.97 140.051 237.6Z" fill="#FEF8EE"/>
<path d="M179.112 239.096C176.884 233.606 177.492 228.178 180.47 226.974L182.968 225.965L191.034 245.847L188.537 246.856C185.559 248.06 181.339 244.586 179.112 239.096Z" fill="#CB8E44"/>
<path d="M191.024 245.849C194.002 244.644 194.61 239.217 192.382 233.726C190.153 228.236 185.933 224.761 182.955 225.967C179.977 227.172 179.369 232.599 181.597 238.09C183.825 243.58 188.045 247.054 191.024 245.849Z" fill="#CB8E44"/>
<path d="M190.394 244.299C192.907 243.282 193.42 238.701 191.54 234.067C189.659 229.434 186.097 226.502 183.584 227.519C181.071 228.536 180.558 233.117 182.438 237.75C184.318 242.384 187.88 245.316 190.394 244.299Z" stroke="#FEF8EE" stroke-width="2" stroke-miterlimit="10"/>
</g>
<rect x="1" y="0.5" width="199" height="240" rx="37.5" stroke="#CB8E44"/>
<defs>
<clipPath id="clip0_0_386">
<rect x="0.5" width="200" height="241" rx="38" fill="white"/>
</clipPath>
</defs>
</svg>
