<svg width="33" height="43" viewBox="0 0 33 43" fill="none" xmlns="http://www.w3.org/2000/svg">
<path d="M22.6929 16.0972C17.4418 16.0972 13.1693 20.369 13.1693 25.6201V26.7852C11.7741 25.6065 9.97439 24.8915 8.00943 24.8915C3.59306 24.8915 0 28.4845 0 32.9002V37.506C0 40.3869 2.34386 42.73 5.224 42.73H10.7934C12.2912 42.73 13.6401 42.0933 14.593 41.0798C15.5467 42.0926 16.8949 42.73 18.3926 42.73H26.991C29.8719 42.73 32.215 40.3869 32.215 37.506V25.6201C32.215 20.369 27.9425 16.0972 22.6915 16.0972H22.6929ZM10.7941 39.8812H5.22472C3.91498 39.8812 2.84952 38.8157 2.84952 37.506V32.9002C2.84952 30.0549 5.16418 27.7403 8.01014 27.7403C10.8561 27.7403 13.17 30.0549 13.17 32.9002V37.506C13.17 38.8157 12.1039 39.8812 10.7941 39.8812ZM29.3677 37.506C29.3677 38.8157 28.3022 39.8812 26.9925 39.8812H18.394C17.0843 39.8812 16.0189 38.8157 16.0189 37.506V25.6201C16.0189 21.9401 19.013 18.946 22.6936 18.946C26.3743 18.946 29.3684 21.9401 29.3684 25.6201L29.3677 37.506ZM22.6929 14.9335C26.8101 14.9335 30.1603 11.584 30.1603 7.46673C30.1603 3.34949 26.8101 0 22.6929 0C18.5757 0 15.2262 3.34949 15.2262 7.46673C15.2262 11.584 18.5757 14.9335 22.6929 14.9335ZM22.6929 2.8481C25.2397 2.8481 27.3115 4.91989 27.3115 7.46602C27.3115 10.0121 25.2397 12.0839 22.6929 12.0839C20.1461 12.0839 18.075 10.0121 18.075 7.46602C18.075 4.91989 20.1468 2.8481 22.6929 2.8481Z" fill="#939393"/>
<path d="M8.00852 23.9021C11.3616 23.9021 14.0893 21.1743 14.0893 17.8213C14.0893 14.4682 11.3616 11.7412 8.00852 11.7412C4.65547 11.7412 1.92773 14.4689 1.92773 17.8213C1.92773 21.1736 4.65547 23.9021 8.00852 23.9021ZM8.00852 14.5893C9.79045 14.5893 11.2405 16.0386 11.2405 17.8206C11.2405 19.6025 9.79045 21.0525 8.00852 21.0525C6.22659 21.0525 4.77654 19.6025 4.77654 17.8206C4.77654 16.0386 6.22659 14.5893 8.00852 14.5893Z" fill="#939393"/>
</svg>
