<svg width="209" height="24" viewBox="0 0 209 24" fill="none" xmlns="http://www.w3.org/2000/svg">
<g clip-path="url(#clip0_1_12)">
<path d="M36.7539 0.624756H41.5881L51.8525 18.8032L62.5808 0.624756H67.0179L54.1706 22.895H49.2037L36.7539 0.624756Z" fill="white"/>
<path d="M76.8184 0.624756H81.6526L91.9173 18.8032L102.645 0.624756H107.082L94.3012 22.895H89.3347L76.8184 0.624756Z" fill="white"/>
<path d="M116.751 0.624756H111.784L111.651 0.893072L99.334 22.895H104.3L114.234 4.17993L124.83 22.895H129.664L116.751 0.624756Z" fill="white"/>
<path d="M74.0382 22.895H69.4023V0.624756H74.0382V22.895Z" fill="white"/>
<path d="M139.466 2.10049H132.645V0.624756H143.903V15.5163C143.903 16.9921 143.638 18.2665 143.175 19.4069C143.042 19.7423 142.247 20.9497 141.519 21.4193C140.459 22.0901 138.605 22.8279 136.221 22.895C134.632 22.9621 132.645 22.895 132.645 22.895L132.115 21.7547C132.115 21.7547 134.963 21.8217 136.751 21.1509C139.797 20.0106 139.665 16.3883 139.665 15.6505L139.466 2.10049Z" fill="white"/>
<path d="M166.683 0.624756V2.10049H152.181V8.87548H166.22V10.3512H152.181V21.4863H166.683V22.9621H147.545V0.624756H166.683Z" fill="white"/>
<path d="M189.399 0.624756V2.10049H181.849V22.895H177.213V2.10049H169.598V0.624756H189.399Z" fill="white"/>
<path d="M199.331 0.154907C200.259 0.154907 201.053 0.154907 201.782 0.221987C202.444 0.289065 203.106 0.356144 203.702 0.490303C204.298 0.624459 204.894 0.691541 205.49 0.825698C206.086 0.959858 206.749 1.09401 207.477 1.29525V2.90515C206.947 2.77099 206.417 2.63683 205.887 2.50267C205.358 2.36851 204.762 2.30144 204.166 2.16728C203.57 2.1002 202.907 2.03312 202.245 1.96604C201.583 1.89896 200.854 1.89896 200.06 1.89896C199.729 1.89896 199.331 1.96604 198.868 2.03312C198.404 2.1002 197.941 2.23436 197.543 2.4356C197.146 2.63683 196.749 2.90515 196.484 3.17346C196.219 3.50886 196.02 3.84424 196.02 4.31381C196.02 4.7163 196.285 5.25293 196.749 5.78956C197.212 6.39325 198.007 7.06404 199.133 7.9361L202.841 10.7534C203.636 11.3571 204.431 11.9608 205.159 12.4975C205.887 13.1012 206.55 13.6378 207.146 14.2415C207.675 14.7781 208.139 15.3819 208.47 15.9185C208.801 16.4551 209 16.9918 209 17.5284C209 18.6017 208.735 19.4737 208.205 20.2116C207.675 20.9494 206.947 21.5531 206.086 22.0227C205.225 22.4922 204.232 22.8276 203.173 23.0289C202.113 23.2301 200.987 23.3643 199.928 23.3643C199 23.3643 198.073 23.2972 197.278 23.2301C196.484 23.163 195.689 23.0289 194.895 22.8947C194.1 22.7605 193.438 22.5593 192.709 22.3581C192.047 22.1568 191.319 21.8885 190.656 21.6202L190.921 20.0103C191.451 20.2116 192.047 20.3457 192.577 20.5469C193.173 20.7482 193.769 20.8823 194.298 21.0165C194.895 21.1506 195.49 21.2848 196.086 21.3519C196.683 21.419 197.345 21.486 197.941 21.486C199.994 21.486 201.583 21.1506 202.576 20.614C203.636 20.0103 204.166 19.1383 204.166 17.9979C204.166 17.6625 204.033 17.3272 203.835 16.9247C203.636 16.5893 203.305 16.1868 202.974 15.7843C202.576 15.3819 202.179 14.9794 201.649 14.5769C201.119 14.1744 200.59 13.772 199.994 13.3024L196.285 10.418C195.358 9.61305 194.563 8.87518 193.901 8.27149C193.239 7.66776 192.709 7.13113 192.378 6.72864C191.981 6.2591 191.716 5.85662 191.583 5.45414C191.451 5.05169 191.319 4.64921 191.319 4.24672C191.319 3.44178 191.517 2.77099 191.981 2.23436C192.444 1.69772 193.04 1.29525 193.835 0.959858C194.563 0.624459 195.424 0.423225 196.418 0.289065C197.411 0.221987 198.338 0.154907 199.331 0.154907Z" fill="white"/>
<path d="M30.2639 0.624756C28.6746 3.50915 26.7541 6.39355 25.1648 9.27796C25.1648 9.27796 24.1714 9.27796 23.5754 9.27796C22.6483 9.27796 21.7874 9.27796 20.8603 9.21087C19.602 9.14381 15.3638 9.07672 14.1055 8.94257C12.781 8.80838 11.4566 8.60718 10.1321 8.40594C8.34412 8.1376 6.62229 7.73515 4.9005 6.86309C3.90717 6.32646 2.91381 5.65568 2.05291 4.78365C1.39068 4.11287 0.8609 3.57623 0.331115 2.30173C0.0662229 1.56386 0 0.624756 0 0.624756C9.00634 0.624756 20.9927 0.624756 29.999 0.624756C29.999 0.624756 30.0653 0.624756 30.2639 0.624756Z" fill="white"/>
<path d="M23.9061 12.0954C21.6545 15.986 16.754 23.7 16.754 23.7C16.6878 23.8342 16.6216 23.9013 16.4891 23.7671C14.7673 21.956 12.4495 20.1448 11.4562 17.6629C11.1913 16.9251 10.9926 16.2543 10.9926 15.4493C10.9264 14.4431 11.3899 13.7723 12.0522 13.3028C12.7806 12.8332 13.6415 12.5649 14.4362 12.4307C15.8269 12.1624 18.6745 12.0283 19.9327 12.0954C20.5287 12.0283 23.9061 12.0954 23.9061 12.0954Z" fill="white"/>
</g>
<defs>
<clipPath id="clip0_1_12">
<rect width="209" height="24" fill="white"/>
</clipPath>
</defs>
</svg>
